<svg xmlns="http://www.w3.org/2000/svg" xmlns:xlink="http://www.w3.org/1999/xlink" viewBox="0 0 896.72 930.54"><defs><style>.cls-1{fill:none;}.cls-2{clip-path:url(#clip-path);}.cls-3{fill:#ec7eb1;}.cls-4{fill:#eb7fb0;}.cls-5{fill:#ea7fb0;}.cls-6{fill:#e980af;}.cls-7{fill:#e880ae;}.cls-8{fill:#e781ae;}.cls-9{fill:#e682ad;}.cls-10{fill:#e582ad;}.cls-11{fill:#e483ac;}.cls-12{fill:#e384ab;}.cls-13{fill:#e284ab;}.cls-14{fill:#e185aa;}.cls-15{fill:#e085a9;}.cls-16{fill:#df86a9;}.cls-17{fill:#de87a8;}.cls-18{fill:#dd87a7;}.cls-19{fill:#dc88a7;}.cls-20{fill:#db89a6;}.cls-21{fill:#da89a5;}.cls-22{fill:#d98aa5;}.cls-23{fill:#d88aa4;}.cls-24{fill:#d78ba4;}.cls-25{fill:#d68ca3;}.cls-26{fill:#d58ca2;}.cls-27{fill:#d48da2;}.cls-28{fill:#d38ea1;}.cls-29{fill:#d28ea0;}.cls-30{fill:#d18fa0;}.cls-31{fill:#d08f9f;}.cls-32{fill:#cf909e;}.cls-33{fill:#ce919e;}.cls-34{fill:#cd919d;}.cls-35{fill:#cc929d;}.cls-36{fill:#cb939c;}.cls-37{fill:#ca939b;}.cls-38{fill:#c9949b;}.cls-39{fill:#c8949a;}.cls-40{fill:#c79599;}.cls-41{fill:#c69699;}.cls-42{fill:#c59698;}.cls-43{fill:#c49797;}.cls-44{fill:#c39797;}.cls-45{fill:#c29896;}.cls-46{fill:#c19995;}.cls-47{fill:#c09995;}.cls-48{fill:#bf9a94;}.cls-49{fill:#be9b94;}.cls-50{fill:#bd9b93;}.cls-51{fill:#bc9c92;}.cls-52{fill:#bb9c92;}.cls-53{fill:#ba9d91;}.cls-54{fill:#b99e90;}.cls-55{fill:#b89e90;}.cls-56{fill:#b79f8f;}.cls-57{fill:#b6a08e;}.cls-58{fill:#b5a08e;}.cls-59{fill:#b5a18d;}.cls-60{fill:#b4a18d;}.cls-61{fill:#b3a28c;}.cls-62{fill:#b2a38b;}.cls-63{fill:#b1a38b;}.cls-64{fill:#b0a48a;}.cls-65{fill:#afa589;}.cls-66{fill:#aea589;}.cls-67{fill:#ada688;}.cls-68{fill:#aca687;}.cls-69{fill:#aba787;}.cls-70{fill:#aaa886;}.cls-71{fill:#a9a886;}.cls-72{fill:#a8a985;}.cls-73{fill:#a7aa84;}.cls-74{fill:#a6aa84;}.cls-75{fill:#a5ab83;}.cls-76{fill:#a4ab82;}.cls-77{fill:#a3ac82;}.cls-78{fill:#a2ad81;}.cls-79{fill:#a1ad80;}.cls-80{fill:#a0ae80;}.cls-81{fill:#9fae7f;}.cls-82{fill:#9eaf7e;}.cls-83{fill:#9db07e;}.cls-84{fill:#9cb07d;}.cls-85{fill:#9bb17d;}.cls-86{fill:#9ab27c;}.cls-87{fill:#99b27b;}.cls-88{fill:#98b37b;}.cls-89{fill:#97b37a;}.cls-90{fill:#96b479;}.cls-91{fill:#95b579;}.cls-92{fill:#94b578;}.cls-93{fill:#93b677;}.cls-94{fill:#92b777;}.cls-95{fill:#91b776;}.cls-96{fill:#90b876;}.cls-97{fill:#8fb875;}.cls-98{fill:#8eb974;}.cls-99{fill:#8dba74;}.cls-100{fill:#8cba73;}.cls-101{fill:#8bbb72;}.cls-102{fill:#8abc72;}.cls-103{fill:#89bc71;}.cls-104{fill:#88bd70;}.cls-105{fill:#87bd70;}.cls-106{fill:#86be6f;}.cls-107{fill:#85bf6e;}.cls-108{fill:#84bf6e;}.cls-109{fill:#83c06d;}.cls-110{fill:#82c16d;}.cls-111{fill:#81c16c;}.cls-112{fill:#80c26b;}.cls-113{fill:#7fc26b;}.cls-114{fill:#7ec36a;}</style><clipPath id="clip-path" transform="translate(-74.83 -180.9)"><rect class="cls-1" width="541" height="1187"/></clipPath></defs><title>Zasób 4</title><g id="Warstwa_2" data-name="Warstwa 2"><g id="Warstwa_1-2" data-name="Warstwa 1"><g class="cls-2"><path class="cls-3" d="M542.66,596,927,523.08l1.91,10c10.73,56.52,36.56,233.79-57.3,370-70.21,103.11-172.44,147.23-276.69,167s-216.31,18.93-325.4-55.36C235.14,991.4,119.66,904,83.9,715.61c-30.75-162,23.27-275.07,64-334.84,50.64-76,144-160,306-190.8,62.8-11.92,131.27-14.51,201.76,7.25,59.25,17.38,127.82,56.42,186.08,123.43L714.34,424.2a232.55,232.55,0,0,0-116.79-80.63c-38.51-10.91-84.14-11.36-123.07-4-66.57,12.64-137.4,50.8-179.36,110.82-38.91,55.53-60.08,142.82-42.2,237C274.14,799.22,334.5,856.73,376.1,884c44.59,29.27,110.3,53.24,199.47,36.31,55.27-10.49,115.21-37.48,155-81.46C758.46,807.5,783,758.6,785.39,695.69l-216,41Z" transform="translate(-74.83 -180.9)"/><path class="cls-4" d="M542.94,596.29l384.33-72.94,1.91,10c10.73,56.52,36.19,233.53-57.3,370-70.49,102.92-172.44,147.24-276.69,167s-216.31,18.93-325.4-55.35c-34.37-23.41-149.85-110.8-185.61-299.19-30.74-162,23.57-274.87,64-334.85,51-75.72,144-160,306-190.8,62.8-11.92,131.12-14,201.76,7.25,59.13,17.8,127.82,56.42,186.08,123.43L714.63,424.47c-39.62-51-87.72-72.09-116.8-80.62-38.4-11.28-84.14-11.36-123.07-4-66.57,12.63-137.4,50.8-179.36,110.81-38.91,55.53-60.08,142.83-42.2,237C274.42,799.5,334.78,857,376.38,884.24c44.59,29.27,110.3,53.24,199.47,36.31,55.27-10.48,115.21-37.47,155-81.46,27.88-31.32,52.43-80.22,54.81-143.13l-216,41Z" transform="translate(-74.83 -180.9)"/><path class="cls-5" d="M543.22,596.56l384.33-72.94,1.91,10c10.73,56.52,36.19,233.53-57.3,370-70.49,102.92-172.44,147.24-276.69,167s-216.31,18.94-325.4-55.35C235.7,992,120.22,904.56,84.47,716.16c-30.75-162,23.56-274.87,64-334.84,51-75.73,144-160.06,306-190.81,62.8-11.91,131.12-14,201.76,7.25C715.34,215.56,784,254.18,842.29,321.2L714.91,424.75c-39.62-51-87.72-72.09-116.8-80.63-38.4-11.27-84.14-11.36-123.07-4C408.47,352.78,337.64,391,295.68,451c-38.91,55.53-60.07,142.83-42.2,237,21.22,111.78,81.58,169.29,123.18,196.53,44.59,29.27,110.3,53.23,199.48,36.31,55.26-10.49,115.2-37.48,155-81.47C759,808,783.58,759.14,786,696.23l-216,41Z" transform="translate(-74.83 -180.9)"/><path class="cls-6" d="M543.5,596.84,927.83,523.9l1.91,10c10.73,56.52,36.19,233.54-57.3,370C802,1006.87,700,1051.19,595.75,1071s-216.31,18.93-325.4-55.36C236,992.22,120.5,904.83,84.75,716.43c-30.75-162,23.56-274.87,64-334.84,51-75.72,144-160,306-190.8,62.8-11.92,131.12-14,201.76,7.25,59.13,17.79,127.82,56.41,186.08,123.43L715.19,425c-39.62-51-87.72-72.09-116.8-80.63-38.4-11.27-84.13-11.36-123.07-4-66.57,12.64-137.4,50.8-179.36,110.82-38.91,55.53-60.07,142.82-42.2,237C275,800,335.34,857.55,376.94,884.79c44.6,29.27,110.3,53.24,199.48,36.31,55.26-10.49,115.2-37.48,155-81.46,27.88-31.32,52.44-80.22,54.81-143.13l-216,41Z" transform="translate(-74.83 -180.9)"/><path class="cls-7" d="M543.78,597.11l384.33-72.94L930,534.22c10.73,56.52,36.19,233.53-57.3,370-70.49,102.92-172.44,147.24-276.69,167s-216.31,18.93-325.4-55.35C236.26,992.49,120.78,905.1,85,716.71c-30.75-162,23.56-274.87,64-334.85,51-75.72,144-160,306-190.8,62.8-11.92,131.12-14,201.76,7.25,59.13,17.8,127.82,56.42,186.08,123.43L715.47,425.29c-39.62-51-87.72-72.09-116.8-80.62-38.4-11.28-84.13-11.36-123.07-4C409,353.33,338.2,391.5,296.24,451.51c-38.91,55.53-60.07,142.82-42.2,237,21.22,111.79,81.58,169.3,123.18,196.53,44.6,29.27,110.3,53.24,199.48,36.31,55.26-10.48,115.2-37.47,155-81.46,27.88-31.32,52.44-80.22,54.81-143.13l-216,41Z" transform="translate(-74.83 -180.9)"/><path class="cls-8" d="M544.06,597.38l384.33-72.94,1.91,10C941,591,966.49,768,873,904.5c-70.5,102.92-172.45,147.24-276.7,167s-216.31,18.94-325.4-55.35C236.54,992.77,121.06,905.38,85.31,717c-30.75-162,23.56-274.87,64-334.84,51-75.73,144-160.06,306-190.81,62.8-11.91,131.12-14,201.76,7.25C716.18,216.38,784.87,255,843.13,322L715.75,425.57c-39.62-51-87.72-72.09-116.8-80.63-38.4-11.27-84.13-11.36-123.07-4-66.57,12.63-137.4,50.8-179.36,110.81-38.91,55.53-60.07,142.83-42.2,237C275.54,800.59,335.9,858.1,377.5,885.34c44.6,29.27,110.3,53.23,199.48,36.31,55.26-10.49,115.2-37.48,155-81.47,27.88-31.32,52.44-80.22,54.81-143.13l-216,41Z" transform="translate(-74.83 -180.9)"/><path class="cls-9" d="M544.34,597.66l384.34-72.94,1.9,10c10.73,56.52,36.19,233.54-57.29,370-70.5,102.91-172.45,147.23-276.7,167s-216.31,18.93-325.4-55.36C236.82,993,121.34,905.65,85.59,717.25c-30.75-162,23.56-274.87,64-334.84,51-75.72,144-160,306-190.8,62.8-11.92,131.12-14,201.76,7.25,59.13,17.79,127.82,56.41,186.08,123.43L716,425.84c-39.62-51-87.72-72.09-116.8-80.63-38.4-11.27-84.13-11.36-123.07-4C409.59,353.88,338.76,392,296.8,452.06c-38.9,55.53-60.07,142.82-42.2,237,21.22,111.78,81.58,169.29,123.18,196.53,44.6,29.27,110.3,53.24,199.48,36.31,55.26-10.49,115.2-37.48,155-81.46,27.89-31.32,52.44-80.22,54.81-143.13l-216,41Z" transform="translate(-74.83 -180.9)"/><path class="cls-10" d="M544.62,597.93,929,525l1.9,10c10.73,56.52,36.19,233.53-57.29,370-70.5,102.92-172.45,147.24-276.7,167s-216.31,18.93-325.4-55.35c-34.37-23.41-149.85-110.8-185.6-299.19-30.75-162,23.56-274.87,64-334.85,51-75.72,144-160,306-190.8,62.8-11.92,131.12-14,201.76,7.25,59.13,17.79,127.82,56.42,186.08,123.43L716.31,426.11c-39.62-51-87.72-72.09-116.8-80.62-38.4-11.28-84.13-11.36-123.07-4-66.57,12.63-137.4,50.8-179.36,110.81-38.9,55.53-60.07,142.82-42.19,237,21.21,111.79,81.57,169.3,123.18,196.53,44.59,29.27,110.29,53.24,199.47,36.31,55.26-10.48,115.2-37.47,155-81.46,27.89-31.32,52.44-80.22,54.81-143.13l-216,41Z" transform="translate(-74.83 -180.9)"/><path class="cls-11" d="M544.9,598.2l384.34-72.94,1.9,10c10.73,56.52,36.19,233.53-57.29,370-70.5,102.92-172.45,147.24-276.7,167s-216.31,18.94-325.4-55.35C237.38,993.59,121.9,906.2,86.15,717.8c-30.75-162,23.56-274.87,64-334.85,51-75.72,144-160,306-190.8,62.8-11.91,131.12-14,201.77,7.25C717,217.2,785.71,255.82,844,322.84L716.59,426.39c-39.62-51-87.72-72.09-116.8-80.63-38.4-11.27-84.13-11.36-123.07-4-66.57,12.63-137.4,50.8-179.36,110.81-38.9,55.53-60.07,142.83-42.19,237,21.21,111.78,81.57,169.29,123.18,196.53,44.59,29.27,110.29,53.23,199.47,36.31C633.08,912,693,885,732.82,841c27.89-31.32,52.44-80.22,54.81-143.13l-216,41Z" transform="translate(-74.83 -180.9)"/><path class="cls-12" d="M545.18,598.48l384.34-72.94,1.9,10c10.73,56.52,36.19,233.54-57.29,370-70.5,102.91-172.45,147.23-276.7,167s-216.31,18.93-325.4-55.36c-34.37-23.4-149.85-110.79-185.6-299.19-30.75-162,23.56-274.87,64-334.84,51-75.72,144-160,306-190.8,62.8-11.92,131.12-14,201.77,7.25C717.3,217.47,786,256.09,844.25,323.11L716.87,426.66c-39.61-51-87.72-72.09-116.8-80.63-38.4-11.27-84.13-11.36-123.07-4-66.57,12.64-137.4,50.8-179.36,110.82-38.9,55.53-60.07,142.82-42.19,237C276.66,801.68,337,859.19,378.63,886.43c44.59,29.27,110.29,53.24,199.47,36.31,55.26-10.49,115.2-37.48,155-81.46C761,810,785.54,761.06,787.91,698.15l-216,41Z" transform="translate(-74.83 -180.9)"/><path class="cls-13" d="M545.47,598.75,929.8,525.81l1.9,10.05c10.73,56.52,36.19,233.53-57.29,370-70.5,102.92-172.45,147.24-276.7,167s-216.31,18.93-325.4-55.35c-34.37-23.41-149.85-110.8-185.6-299.19-30.75-162,23.56-274.87,64-334.85,51-75.72,144-160,306-190.8,62.8-11.92,131.12-14,201.77,7.25,59.12,17.79,127.81,56.42,186.08,123.43L717.15,426.93c-39.61-51-87.72-72.09-116.8-80.62C562,335,516.22,335,477.28,342.34,410.72,355,339.89,393.14,297.92,453.15c-38.9,55.53-60.07,142.82-42.19,237C276.94,802,337.3,859.47,378.91,886.7,423.5,916,489.2,939.94,578.38,923c55.26-10.48,115.2-37.47,155-81.46,27.89-31.32,52.44-80.22,54.81-143.13l-216,41Z" transform="translate(-74.83 -180.9)"/><path class="cls-14" d="M545.75,599l384.33-72.94,1.9,10c10.73,56.52,36.19,233.53-57.29,370-70.5,102.92-172.45,147.24-276.69,167s-216.32,18.94-325.41-55.35C238.22,994.41,122.74,907,87,718.62c-30.75-162,23.56-274.87,64-334.85,51-75.72,144-160,306-190.8,62.8-11.92,131.12-14,201.77,7.25,59.12,17.8,127.81,56.42,186.08,123.44L717.43,427.21c-39.61-51-87.72-72.1-116.8-80.63-38.4-11.27-84.13-11.36-123.07-4C411,355.24,340.17,393.41,298.2,453.42,259.3,509,238.13,596.25,256,690.45,277.22,802.23,337.58,859.74,379.19,887c44.59,29.27,110.29,53.23,199.47,36.31,55.26-10.49,115.2-37.48,155-81.47,27.89-31.32,52.44-80.22,54.81-143.13l-216,41Z" transform="translate(-74.83 -180.9)"/><path class="cls-15" d="M546,599.3l384.33-72.94,1.91,10c10.72,56.52,36.18,233.54-57.3,370-70.5,102.91-172.45,147.23-276.69,167S382,1092.37,272.87,1018.08C238.5,994.68,123,907.29,87.27,718.89c-30.75-162,23.56-274.87,64-334.84,51-75.72,144-160,306-190.8,62.8-11.92,131.13-14,201.77,7.25,59.13,17.79,127.81,56.41,186.08,123.43L717.71,427.48c-39.61-51-87.72-72.09-116.8-80.63-38.4-11.27-84.13-11.36-123.07-4-66.56,12.64-137.39,50.8-179.35,110.82-38.91,55.53-60.08,142.82-42.2,237C277.5,802.5,337.86,860,379.47,887.25c44.59,29.27,110.29,53.24,199.47,36.31,55.26-10.49,115.2-37.48,155-81.46,27.89-31.32,52.44-80.22,54.81-143.13l-216,41Z" transform="translate(-74.83 -180.9)"/><path class="cls-16" d="M546.31,599.57l384.33-72.94,1.91,10c10.72,56.52,36.19,233.53-57.3,370-70.5,102.92-172.45,147.24-276.69,167s-216.32,18.93-325.41-55.35C238.78,995,123.31,907.56,87.55,719.17c-30.75-162,23.56-274.87,64-334.85,51-75.72,144-160,306-190.8,62.8-11.92,131.13-14,201.77,7.25,59.13,17.79,127.82,56.42,186.08,123.43L718,427.75c-39.61-51-87.72-72.09-116.8-80.62-38.4-11.28-84.13-11.36-123.07-4C411.56,355.79,340.73,394,298.77,454c-38.91,55.53-60.08,142.82-42.2,237,21.21,111.79,81.57,169.3,123.18,196.53,44.59,29.27,110.3,53.24,199.47,36.31,55.26-10.48,115.2-37.47,155-81.46,27.89-31.32,52.44-80.22,54.81-143.13l-216,41Z" transform="translate(-74.83 -180.9)"/><path class="cls-17" d="M546.59,599.84,930.92,526.9,932.83,537c10.72,56.52,36.19,233.53-57.3,370C805,1009.88,703.08,1054.2,598.84,1074s-216.32,18.94-325.4-55.35c-34.37-23.4-149.85-110.79-185.61-299.19-30.75-162,23.56-274.87,64-334.85,51-75.72,144-160,306-190.8,62.8-11.92,131.13-14,201.77,7.25,59.13,17.8,127.82,56.42,186.08,123.44L718.27,428c-39.61-51-87.72-72.1-116.8-80.63-38.4-11.27-84.13-11.36-123.06-4-66.57,12.63-137.4,50.8-179.36,110.81-38.91,55.53-60.08,142.83-42.2,237C278.06,803.05,338.42,860.56,380,887.8c44.59,29.27,110.3,53.23,199.47,36.31,55.26-10.49,115.2-37.48,155-81.47,27.89-31.32,52.44-80.22,54.81-143.13l-216,41Z" transform="translate(-74.83 -180.9)"/><path class="cls-18" d="M546.87,600.12,931.2,527.18l1.91,10c10.72,56.52,36.19,233.54-57.3,370-70.5,102.91-172.45,147.23-276.69,167s-216.32,18.93-325.4-55.36C239.35,995.5,123.87,908.11,88.11,719.71c-30.75-162,23.56-274.87,64-334.84,51-75.72,144-160,306-190.8,62.8-11.92,131.13-14,201.77,7.25C719,219.11,787.68,257.73,845.94,324.75L718.55,428.3c-39.61-51-87.72-72.09-116.8-80.63-38.4-11.27-84.13-11.36-123.06-4-66.57,12.64-137.4,50.8-179.36,110.82-38.91,55.53-60.08,142.82-42.2,237,21.21,111.78,81.58,169.29,123.18,196.53,44.59,29.27,110.3,53.24,199.47,36.31,55.27-10.49,115.2-37.48,155-81.46,27.89-31.32,52.44-80.22,54.81-143.13l-216,41Z" transform="translate(-74.83 -180.9)"/><path class="cls-19" d="M547.15,600.39l384.33-72.94,1.91,10c10.72,56.52,36.19,233.53-57.3,370-70.5,102.92-172.45,147.23-276.69,167s-216.32,18.93-325.4-55.35C239.63,995.77,124.15,908.38,88.39,720c-30.75-162,23.56-274.87,64-334.85,51-75.72,144-160,306-190.8,62.8-11.92,131.13-14,201.77,7.25C719.27,219.38,788,258,846.22,325L718.83,428.57c-39.61-51-87.72-72.09-116.8-80.63-38.4-11.27-84.13-11.35-123.06-4-66.57,12.63-137.4,50.8-179.36,110.81-38.91,55.53-60.08,142.82-42.2,237C278.62,803.6,339,861.11,380.59,888.34c44.59,29.27,110.3,53.24,199.47,36.31,55.27-10.48,115.2-37.47,155-81.46C763,811.87,787.5,763,789.87,700.06l-216,41Z" transform="translate(-74.83 -180.9)"/><path class="cls-20" d="M547.43,600.66l384.33-72.94,1.91,10c10.72,56.52,36.19,233.53-57.3,370-70.5,102.92-172.44,147.24-276.69,167s-216.32,18.94-325.4-55.35c-34.37-23.4-149.85-110.79-185.61-299.19-30.75-162,23.56-274.87,64-334.85,51-75.72,144-160,306-190.8,62.8-11.92,131.13-14,201.77,7.25,59.13,17.8,127.82,56.42,186.08,123.44L719.11,428.85c-39.61-51-87.72-72.1-116.8-80.63-38.4-11.27-84.13-11.36-123.06-4-66.57,12.63-137.4,50.8-179.36,110.81-38.91,55.53-60.08,142.83-42.2,237,21.21,111.78,81.58,169.29,123.18,196.53,44.59,29.27,110.3,53.23,199.47,36.31,55.27-10.49,115.21-37.48,155-81.47,27.89-31.32,52.44-80.22,54.82-143.13l-216,41Z" transform="translate(-74.83 -180.9)"/><path class="cls-21" d="M547.71,600.94,932,528,934,538c10.72,56.52,36.19,233.54-57.3,370-70.5,102.91-172.44,147.23-276.69,167s-216.31,18.93-325.4-55.36C240.19,996.32,124.71,908.93,89,720.53c-30.75-162,23.57-274.87,64-334.84,51-75.72,144-160,306-190.8,62.8-11.92,131.13-14,201.77,7.25,59.13,17.79,127.82,56.41,186.08,123.43L719.39,429.12c-39.61-51-87.72-72.09-116.79-80.63-38.41-11.27-84.14-11.36-123.07-4-66.57,12.64-137.4,50.8-179.36,110.82-38.91,55.53-60.08,142.82-42.2,237,21.22,111.78,81.58,169.29,123.18,196.53,44.59,29.27,110.3,53.24,199.47,36.31,55.27-10.49,115.21-37.48,155-81.46,27.89-31.32,52.44-80.22,54.82-143.13l-216,41Z" transform="translate(-74.83 -180.9)"/><path class="cls-22" d="M548,601.21l384.33-72.94,1.91,10.05c10.73,56.52,36.19,233.53-57.3,370-70.5,102.92-172.44,147.23-276.69,167s-216.31,18.93-325.4-55.35C240.47,996.59,125,909.2,89.23,720.81c-30.75-162,23.57-274.87,64-334.85,51-75.72,144-160,306-190.8,62.8-11.92,131.13-14,201.77,7.25,59.13,17.79,127.82,56.42,186.08,123.43L719.67,429.39c-39.61-51-87.71-72.09-116.79-80.63-38.41-11.27-84.14-11.35-123.07-4-66.57,12.63-137.4,50.8-179.36,110.81-38.91,55.53-60.08,142.82-42.2,237,21.22,111.79,81.58,169.3,123.18,196.53C426,918.43,491.73,942.4,580.9,925.47,636.17,915,696.11,888,735.9,844c27.89-31.32,52.44-80.22,54.82-143.13l-216,41Z" transform="translate(-74.83 -180.9)"/><path class="cls-23" d="M548.27,601.48,932.6,528.54l1.91,10.05c10.73,56.52,36.19,233.53-57.3,370-70.49,102.92-172.44,147.24-276.69,167s-216.31,18.94-325.4-55.35c-34.37-23.4-149.85-110.79-185.61-299.19-30.75-162,23.57-274.87,64-334.85,51-75.72,144-160,306-190.8,62.79-11.92,131.12-14,201.76,7.25,59.13,17.8,127.82,56.42,186.08,123.44L720,429.67c-39.61-51-87.71-72.1-116.79-80.63-38.4-11.27-84.14-11.36-123.07-4-66.57,12.63-137.4,50.8-179.36,110.81-38.91,55.53-60.08,142.83-42.2,237,21.22,111.78,81.58,169.29,123.18,196.53,44.59,29.27,110.3,53.23,199.47,36.31,55.27-10.49,115.21-37.48,155-81.47C764.07,813,788.62,764.06,791,701.15l-216,41Z" transform="translate(-74.83 -180.9)"/><path class="cls-24" d="M548.55,601.76l384.33-72.94,1.91,10c10.73,56.52,36.19,233.54-57.3,370-70.49,102.91-172.44,147.23-276.69,167s-216.31,18.93-325.4-55.36C241,997.14,125.55,909.75,89.79,721.35c-30.75-162,23.57-274.87,64-334.84,51-75.72,144-160,306-190.8,62.8-11.92,131.12-14,201.76,7.25,59.13,17.79,127.82,56.41,186.08,123.43L720.23,429.94c-39.61-51-87.71-72.09-116.79-80.63C565,338,519.3,338,480.37,345.34,413.8,358,343,396.14,301,456.16c-38.91,55.53-60.08,142.82-42.2,237C280,805,340.39,862.47,382,889.71,426.58,919,492.29,943,581.46,926c55.27-10.49,115.21-37.48,155-81.46,27.89-31.32,52.44-80.22,54.82-143.13l-216,41Z" transform="translate(-74.83 -180.9)"/><path class="cls-25" d="M548.83,602l384.33-72.94,1.91,10c10.73,56.52,36.19,233.53-57.3,370-70.49,102.92-172.44,147.23-276.69,167s-216.31,18.93-325.4-55.35C241.31,997.41,125.83,910,90.07,721.63c-30.75-162,23.57-274.87,64-334.85,51-75.72,144-160,306-190.8,62.8-11.92,131.12-14,201.76,7.25C721,221,789.64,259.65,847.9,326.66L720.51,430.21c-39.61-51-87.71-72.09-116.79-80.63-38.4-11.27-84.14-11.35-123.07-4-66.57,12.63-137.4,50.8-179.36,110.81-38.91,55.53-60.08,142.82-42.2,237C280.31,805.24,340.67,862.74,382.27,890c44.59,29.27,110.3,53.24,199.47,36.31,55.27-10.48,115.21-37.47,155-81.46,27.89-31.32,52.44-80.22,54.82-143.13l-216,41Z" transform="translate(-74.83 -180.9)"/><path class="cls-26" d="M549.11,602.3l384.33-72.94,1.91,10c10.73,56.52,36.19,233.53-57.3,370-70.49,102.92-172.44,147.24-276.69,167s-216.31,18.94-325.4-55.35C241.59,997.69,126.11,910.3,90.35,721.9c-30.74-162,23.57-274.87,64-334.85,51-75.72,144-160,306-190.8,62.8-11.92,131.12-14,201.76,7.25,59.13,17.8,127.82,56.42,186.08,123.44L720.8,430.49c-39.62-51-87.72-72.1-116.8-80.63-38.4-11.27-84.14-11.36-123.07-4-66.57,12.63-137.4,50.8-179.36,110.81-38.91,55.53-60.08,142.83-42.2,237C280.59,805.51,341,863,382.55,890.26c44.59,29.27,110.3,53.23,199.47,36.31,55.27-10.49,115.21-37.48,155-81.47,27.88-31.32,52.43-80.22,54.81-143.13l-216,41Z" transform="translate(-74.83 -180.9)"/><path class="cls-27" d="M549.39,602.58l384.33-72.94,1.91,10c10.73,56.52,36.19,233.54-57.3,370-70.49,102.91-172.44,147.23-276.69,167s-216.31,18.93-325.4-55.36C241.87,998,126.39,910.57,90.64,722.17c-30.75-162,23.56-274.87,64-334.84,51-75.72,144-160,306-190.8,62.8-11.92,131.12-14,201.76,7.25,59.13,17.79,127.82,56.41,186.08,123.43L721.08,430.76c-39.62-51-87.72-72.09-116.8-80.63-38.4-11.27-84.14-11.36-123.07-4C414.64,358.8,343.81,397,301.85,457c-38.91,55.53-60.07,142.82-42.2,237,21.22,111.78,81.58,169.29,123.18,196.53,44.59,29.27,110.3,53.24,199.48,36.31,55.26-10.49,115.2-37.48,155-81.46,27.88-31.32,52.44-80.22,54.81-143.13l-216,41Z" transform="translate(-74.83 -180.9)"/><path class="cls-28" d="M549.67,602.85,934,529.91,935.91,540c10.73,56.52,36.19,233.53-57.3,370-70.49,102.92-172.44,147.23-276.69,167s-216.31,18.93-325.4-55.35c-34.37-23.41-149.85-110.8-185.6-299.19-30.75-162,23.56-274.87,64-334.85,51-75.72,144-160,306-190.8,62.8-11.92,131.12-14,201.76,7.25,59.13,17.79,127.82,56.42,186.08,123.43L721.36,431c-39.62-51-87.72-72.09-116.8-80.63-38.4-11.27-84.13-11.35-123.07-4-66.57,12.63-137.4,50.8-179.36,110.81-38.91,55.53-60.07,142.82-42.2,237,21.22,111.79,81.58,169.29,123.18,196.53,44.6,29.27,110.3,53.24,199.48,36.31,55.26-10.48,115.2-37.47,155-81.46,27.88-31.32,52.44-80.22,54.81-143.13l-216,41Z" transform="translate(-74.83 -180.9)"/><path class="cls-29" d="M550,603.12l384.33-72.94,1.91,10.05c10.73,56.52,36.19,233.53-57.3,370-70.49,102.92-172.44,147.24-276.69,167s-216.31,18.94-325.4-55.35C242.43,998.51,127,911.12,91.2,722.72c-30.75-162,23.56-274.87,64-334.85,51-75.72,144-160,306-190.8,62.8-11.92,131.12-14,201.76,7.25,59.13,17.8,127.82,56.42,186.08,123.44L721.64,431.31c-39.62-51-87.72-72.1-116.8-80.63-38.4-11.27-84.13-11.36-123.07-4-66.57,12.63-137.4,50.8-179.36,110.81-38.91,55.53-60.07,142.83-42.2,237,21.22,111.78,81.58,169.29,123.18,196.53,44.6,29.27,110.3,53.23,199.48,36.31,55.26-10.49,115.2-37.48,155-81.47,27.88-31.32,52.44-80.22,54.81-143.13l-216,41Z" transform="translate(-74.83 -180.9)"/><path class="cls-30" d="M550.23,603.4l384.33-72.94,1.91,10C947.2,597,972.66,774,879.18,910.52c-70.5,102.91-172.45,147.23-276.7,167s-216.31,18.93-325.4-55.36C242.71,998.78,127.23,911.39,91.48,723c-30.75-162,23.56-274.87,64-334.84,51-75.72,144-160,306-190.8,62.8-11.92,131.12-14,201.76,7.25C722.35,222.39,791,261,849.3,328L721.92,431.58c-39.62-51-87.72-72.09-116.8-80.63-38.4-11.27-84.13-11.36-123.07-4-66.57,12.64-137.4,50.8-179.36,110.82-38.91,55.53-60.07,142.82-42.2,237,21.22,111.78,81.58,169.29,123.18,196.53,44.6,29.27,110.3,53.24,199.48,36.31,55.26-10.49,115.2-37.48,155-81.46C766,814.88,790.59,766,793,703.07l-216,41Z" transform="translate(-74.83 -180.9)"/><path class="cls-31" d="M550.51,603.67l384.34-72.94,1.9,10c10.73,56.52,36.19,233.53-57.29,370C809,1013.71,707,1058,602.76,1077.81s-216.31,18.93-325.4-55.35C243,999.05,127.51,911.66,91.76,723.27c-30.75-162,23.56-274.87,64-334.85,51-75.72,144-160,306-190.8,62.8-11.92,131.12-14,201.76,7.25,59.13,17.79,127.82,56.42,186.08,123.43L722.2,431.85c-39.62-51-87.72-72.09-116.8-80.63-38.4-11.27-84.13-11.35-123.07-4-66.57,12.63-137.4,50.8-179.36,110.81-38.9,55.53-60.07,142.82-42.2,237C282,806.88,342.35,864.38,384,891.62c44.6,29.27,110.3,53.24,199.48,36.31,55.26-10.48,115.2-37.47,155-81.46,27.89-31.32,52.44-80.22,54.81-143.13l-216,41Z" transform="translate(-74.83 -180.9)"/><path class="cls-32" d="M550.79,603.94,935.13,531l1.9,10c10.73,56.52,36.19,233.53-57.29,370-70.5,102.92-172.45,147.24-276.7,167s-216.31,18.94-325.4-55.35C243.27,999.33,127.79,911.94,92,723.54c-30.75-162,23.56-274.87,64-334.85,51-75.72,144-160,306-190.8,62.8-11.92,131.12-14,201.76,7.25,59.13,17.8,127.82,56.42,186.08,123.44L722.48,432.13c-39.62-51-87.72-72.1-116.8-80.63-38.4-11.27-84.13-11.36-123.07-4-66.57,12.63-137.4,50.8-179.36,110.81-38.9,55.53-60.07,142.83-42.19,237,21.21,111.78,81.57,169.29,123.18,196.53,44.59,29.27,110.29,53.23,199.47,36.31,55.26-10.49,115.2-37.48,155-81.47,27.89-31.32,52.44-80.22,54.81-143.13l-216,41Z" transform="translate(-74.83 -180.9)"/><path class="cls-33" d="M551.07,604.22l384.34-72.94,1.9,10C948,597.84,973.5,774.86,880,911.34c-70.5,102.91-172.45,147.23-276.7,167S387,1097.29,277.92,1023c-34.37-23.4-149.85-110.79-185.6-299.19-30.75-162,23.56-274.87,64-334.84,51-75.72,144-160.05,306-190.8,62.8-11.92,131.12-14,201.77,7.25,59.12,17.79,127.81,56.41,186.07,123.43L722.76,432.4c-39.62-51-87.72-72.09-116.8-80.63-38.4-11.27-84.13-11.36-123.07-4-66.57,12.64-137.4,50.8-179.36,110.82-38.9,55.53-60.07,142.82-42.19,237,21.21,111.78,81.57,169.29,123.18,196.53,44.59,29.27,110.29,53.24,199.47,36.31C639.25,918,699.19,891,739,847c27.89-31.32,52.44-80.22,54.81-143.13l-216,41Z" transform="translate(-74.83 -180.9)"/><path class="cls-34" d="M551.35,604.49l384.34-72.94,1.9,10.05c10.73,56.52,36.19,233.53-57.29,370-70.5,102.92-172.45,147.23-276.7,167s-216.31,18.93-325.4-55.35c-34.37-23.41-149.85-110.8-185.6-299.19-30.75-162,23.56-274.87,64-334.85,51-75.72,144-160,306-190.8,62.8-11.92,131.12-14,201.77,7.25,59.12,17.79,127.81,56.42,186.07,123.43L723,432.67c-39.61-51-87.72-72.09-116.8-80.63-38.4-11.27-84.13-11.35-123.07-4-66.57,12.63-137.4,50.8-179.36,110.81-38.9,55.53-60.07,142.82-42.19,237C282.83,807.7,343.19,865.2,384.8,892.44c44.59,29.27,110.29,53.24,199.47,36.31,55.26-10.48,115.2-37.47,155-81.46,27.89-31.32,52.44-80.22,54.81-143.13l-216,41Z" transform="translate(-74.83 -180.9)"/><path class="cls-35" d="M551.64,604.76,936,531.82l1.9,10c10.73,56.52,36.19,233.53-57.29,370-70.5,102.92-172.45,147.24-276.7,167s-216.31,18.94-325.4-55.35c-34.37-23.4-149.85-110.79-185.6-299.19-30.75-162,23.56-274.87,64-334.85,51-75.72,144-160,306-190.8,62.8-11.92,131.12-14,201.77,7.25,59.12,17.8,127.81,56.42,186.08,123.44L723.32,433c-39.61-51-87.72-72.1-116.8-80.63-38.4-11.27-84.13-11.36-123.07-4C416.89,361,346.06,399.15,304.09,459.16,265.19,514.69,244,602,261.9,696.19,283.11,808,343.47,865.48,385.08,892.72,429.67,922,495.37,946,584.55,929c55.26-10.49,115.2-37.48,155-81.47,27.89-31.32,52.44-80.22,54.81-143.13l-216,41Z" transform="translate(-74.83 -180.9)"/><path class="cls-36" d="M551.92,605,936.25,532.1l1.9,10c10.73,56.52,36.19,233.54-57.29,370-70.5,102.91-172.45,147.23-276.69,167s-216.32,18.93-325.41-55.36C244.39,1000.42,128.91,913,93.16,724.63c-30.75-162,23.56-274.87,64-334.84,51-75.72,144-160,306-190.8,62.8-11.92,131.12-14,201.77,7.25C724,224,792.72,262.65,851,329.67L723.6,433.22c-39.61-51-87.72-72.09-116.8-80.63-38.4-11.27-84.13-11.36-123.07-4-66.56,12.64-137.39,50.8-179.36,110.82-38.9,55.53-60.07,142.82-42.19,237C283.39,808.24,343.75,865.75,385.36,893,430,922.26,495.65,946.23,584.83,929.3c55.26-10.49,115.2-37.48,155-81.46,27.89-31.32,52.44-80.22,54.81-143.13l-216,41Z" transform="translate(-74.83 -180.9)"/><path class="cls-37" d="M552.2,605.31l384.33-72.94,1.91,10c10.72,56.52,36.18,233.53-57.3,370-70.5,102.92-172.45,147.23-276.69,167S388.13,1098.38,279,1024.1c-34.37-23.41-149.84-110.8-185.6-299.19-30.75-162,23.56-274.87,64-334.85,51-75.72,144-160,306-190.8,62.8-11.92,131.13-14,201.77,7.25C724.32,224.3,793,262.93,851.27,329.94L723.88,433.49c-39.61-51-87.72-72.09-116.8-80.63-38.4-11.27-84.13-11.35-123.07-4-66.56,12.63-137.39,50.8-179.35,110.81-38.91,55.53-60.08,142.82-42.2,237C283.67,808.52,344,866,385.64,893.26c44.59,29.27,110.29,53.24,199.47,36.31,55.26-10.48,115.2-37.47,155-81.46C768,816.79,792.55,767.89,794.92,705l-216,41Z" transform="translate(-74.83 -180.9)"/><path class="cls-38" d="M552.48,605.58l384.33-72.94,1.91,10.05c10.72,56.52,36.19,233.53-57.3,370-70.5,102.92-172.45,147.24-276.69,167s-216.32,18.94-325.41-55.35C245,1001,129.48,913.58,93.72,725.18c-30.75-162,23.56-274.87,64-334.85,51-75.72,144-160,306-190.8,62.8-11.92,131.13-14,201.77,7.25,59.13,17.8,127.82,56.42,186.08,123.44L724.16,433.77c-39.61-51-87.72-72.1-116.8-80.63-38.4-11.27-84.13-11.36-123.07-4C417.73,361.8,346.9,400,304.94,460c-38.91,55.53-60.08,142.83-42.2,237C284,808.79,344.31,866.3,385.92,893.54c44.59,29.27,110.3,53.23,199.47,36.31,55.26-10.49,115.2-37.48,155-81.47,27.89-31.32,52.44-80.22,54.81-143.13l-216,41Z" transform="translate(-74.83 -180.9)"/><path class="cls-39" d="M552.76,605.86l384.33-72.94L939,543c10.72,56.52,36.19,233.54-57.3,370C811.2,1015.89,709.25,1060.21,605,1080s-216.32,18.93-325.4-55.36C245.24,1001.24,129.76,913.85,94,725.45c-30.75-162,23.56-274.87,64-334.84,51-75.72,144-160,306-190.8,62.8-11.92,131.13-14,201.77,7.25,59.13,17.79,127.82,56.41,186.08,123.43L724.44,434c-39.61-51-87.72-72.09-116.8-80.63-38.4-11.27-84.13-11.36-123.06-4-66.57,12.64-137.4,50.8-179.36,110.82-38.91,55.53-60.08,142.82-42.2,237,21.21,111.78,81.57,169.29,123.18,196.53,44.59,29.27,110.3,53.24,199.47,36.31,55.26-10.49,115.2-37.48,155-81.46,27.89-31.32,52.44-80.22,54.81-143.13l-216,41Z" transform="translate(-74.83 -180.9)"/><path class="cls-40" d="M553,606.13l384.33-72.94,1.91,10c10.72,56.52,36.19,233.53-57.3,370-70.5,102.92-172.45,147.23-276.69,167S389,1099.2,279.89,1024.92C245.52,1001.51,130,914.12,94.28,725.73c-30.75-162,23.56-274.87,64-334.85,51-75.72,144-160,306-190.8,62.8-11.92,131.13-14,201.77,7.25,59.13,17.79,127.82,56.42,186.08,123.43L724.72,434.31c-39.61-51-87.72-72.09-116.8-80.63-38.4-11.27-84.13-11.35-123.06-4-66.57,12.63-137.4,50.8-179.36,110.81-38.91,55.53-60.08,142.82-42.2,237,21.21,111.79,81.58,169.29,123.18,196.53,44.59,29.27,110.3,53.24,199.47,36.31,55.27-10.48,115.2-37.47,155-81.46,27.89-31.32,52.44-80.22,54.81-143.13l-216,41Z" transform="translate(-74.83 -180.9)"/><path class="cls-41" d="M553.32,606.4l384.33-72.94,1.91,10c10.72,56.52,36.19,233.53-57.3,370-70.5,102.92-172.45,147.24-276.69,167s-216.32,18.94-325.4-55.35C245.8,1001.79,130.32,914.4,94.56,726c-30.75-162,23.56-274.87,64-334.85,51-75.72,144-160,306-190.8,62.8-11.92,131.13-14,201.77,7.25C725.44,225.4,794.13,264,852.39,331L725,434.59c-39.61-51-87.72-72.1-116.8-80.63-38.4-11.27-84.13-11.36-123.06-4-66.57,12.63-137.4,50.8-179.36,110.81-38.91,55.53-60.08,142.83-42.2,237,21.21,111.78,81.58,169.29,123.18,196.53,44.59,29.27,110.3,53.23,199.47,36.31,55.27-10.49,115.2-37.48,155-81.47C769.12,817.88,793.67,769,796,706.07l-216,41Z" transform="translate(-74.83 -180.9)"/><path class="cls-42" d="M553.6,606.68l384.33-72.94,1.91,10c10.72,56.52,36.19,233.54-57.3,370C812,1016.71,710.1,1061,605.85,1080.82s-216.32,18.93-325.4-55.36c-34.37-23.4-149.85-110.79-185.61-299.19-30.75-162,23.56-274.87,64-334.84,51-75.72,144-160,306-190.8,62.8-11.92,131.13-14,201.77,7.25,59.13,17.79,127.82,56.41,186.08,123.43L725.28,434.86c-39.61-51-87.72-72.09-116.8-80.63-38.4-11.27-84.13-11.36-123.06-4C418.85,362.9,348,401.06,306.06,461.08c-38.91,55.53-60.08,142.82-42.2,237C285.07,809.88,345.44,867.39,387,894.63c44.59,29.27,110.3,53.23,199.47,36.31,55.27-10.49,115.21-37.48,155-81.46,27.89-31.32,52.44-80.22,54.82-143.13l-216,41Z" transform="translate(-74.83 -180.9)"/><path class="cls-43" d="M553.88,607,938.21,534l1.91,10c10.72,56.52,36.19,233.53-57.3,370-70.5,102.92-172.44,147.23-276.69,167s-216.31,18.93-325.4-55.35c-34.37-23.41-149.85-110.8-185.61-299.19-30.75-162,23.57-274.87,64-334.85,51-75.72,144-160,306-190.8,62.8-11.92,131.13-14,201.77,7.25C726,225.94,794.69,264.57,853,331.58L725.56,435.13C686,384.1,637.84,363,608.77,354.5c-38.41-11.27-84.14-11.35-123.07-4-66.57,12.63-137.4,50.8-179.36,110.81-38.91,55.53-60.08,142.82-42.2,237,21.22,111.79,81.58,169.29,123.18,196.53,44.59,29.27,110.3,53.24,199.47,36.31,55.27-10.48,115.21-37.47,155-81.46,27.89-31.32,52.44-80.22,54.82-143.13l-216,41Z" transform="translate(-74.83 -180.9)"/><path class="cls-44" d="M554.16,607.22l384.33-72.94,1.91,10.05c10.73,56.52,36.19,233.53-57.3,370-70.5,102.92-172.44,147.24-276.69,167S390.1,1100.3,281,1026c-34.37-23.4-149.85-110.79-185.61-299.19C64.65,564.8,119,452,159.37,392c51-75.72,144-160.05,306-190.8,62.8-11.92,131.13-14,201.77,7.25,59.13,17.8,127.82,56.42,186.08,123.44L725.84,435.41c-39.61-51-87.71-72.1-116.79-80.63-38.41-11.27-84.14-11.36-123.07-4-66.57,12.63-137.4,50.8-179.36,110.81-38.91,55.53-60.08,142.83-42.2,237C285.64,810.43,346,867.94,387.6,895.18c44.59,29.27,110.3,53.23,199.47,36.31C642.34,921,702.28,894,742.07,850,770,818.7,794.51,769.8,796.89,706.89l-216,41Z" transform="translate(-74.83 -180.9)"/><path class="cls-45" d="M554.44,607.5l384.33-72.94,1.91,10c10.73,56.52,36.19,233.54-57.3,370-70.49,102.91-172.44,147.23-276.69,167s-216.31,18.93-325.4-55.36c-34.37-23.4-149.85-110.79-185.61-299.19-30.75-162,23.57-274.87,64-334.84,51-75.72,144-160,306-190.8,62.79-11.92,131.12-14,201.76,7.25,59.13,17.79,127.82,56.41,186.08,123.43L726.12,435.68c-39.61-51-87.71-72.09-116.79-80.63-38.4-11.27-84.14-11.36-123.07-4-66.57,12.64-137.4,50.8-179.36,110.82-38.91,55.53-60.08,142.82-42.2,237,21.22,111.78,81.58,169.29,123.18,196.53,44.59,29.27,110.3,53.23,199.47,36.31,55.27-10.49,115.21-37.48,155-81.46,27.89-31.32,52.44-80.22,54.82-143.13l-216,41Z" transform="translate(-74.83 -180.9)"/><path class="cls-46" d="M554.72,607.77l384.33-72.94,1.91,10c10.73,56.52,36.19,233.53-57.3,370-70.49,102.92-172.44,147.23-276.69,167s-216.31,18.93-325.4-55.35C247.2,1003.15,131.72,915.76,96,727.37c-30.75-162,23.57-274.87,64-334.85,51-75.72,144-160,306-190.8,62.8-11.92,131.12-14,201.76,7.25,59.13,17.79,127.82,56.42,186.08,123.43L726.4,436c-39.61-51-87.71-72.09-116.79-80.63-38.4-11.27-84.14-11.35-123.07-4C420,364,349.14,402.16,307.18,462.17,268.27,517.7,247.1,605,265,699.19,286.2,811,346.56,868.48,388.16,895.72,432.75,925,498.46,949,587.63,932c55.27-10.48,115.21-37.47,155-81.46,27.89-31.32,52.44-80.22,54.82-143.13l-216,41Z" transform="translate(-74.83 -180.9)"/><path class="cls-47" d="M555,608,939.33,535.1l1.91,10c10.73,56.52,36.19,233.53-57.3,370-70.49,102.92-172.44,147.24-276.69,167s-216.31,18.94-325.4-55.35C247.48,1003.43,132,916,96.24,727.64c-30.75-162,23.57-274.87,64-334.85,51-75.72,144-160,306-190.8C529,190.07,597.35,188,668,209.24c59.13,17.8,127.82,56.42,186.08,123.44L726.68,436.23c-39.61-51-87.71-72.1-116.79-80.63-38.4-11.27-84.14-11.36-123.07-4-66.57,12.63-137.4,50.8-179.36,110.81-38.91,55.53-60.08,142.83-42.2,237C286.48,811.25,346.84,868.76,388.44,896c44.59,29.27,110.3,53.23,199.47,36.31,55.27-10.49,115.21-37.48,155-81.47,27.89-31.32,52.44-80.22,54.82-143.13l-216,41Z" transform="translate(-74.83 -180.9)"/><path class="cls-48" d="M555.28,608.32l384.33-72.94,1.91,10c10.73,56.52,36.19,233.53-57.3,370-70.49,102.91-172.44,147.23-276.69,167s-216.31,18.93-325.4-55.36c-34.37-23.4-149.85-110.79-185.61-299.19-30.74-162,23.57-274.87,64-334.84,51-75.72,144-160,306-190.8,62.8-11.92,131.12-14,201.76,7.25C727.4,227.31,796.09,265.93,854.35,333L727,436.5c-39.62-51-87.72-72.09-116.8-80.63-38.4-11.27-84.14-11.36-123.07-4-66.57,12.64-137.4,50.8-179.36,110.82-38.91,55.53-60.08,142.82-42.2,237C286.76,811.52,347.12,869,388.72,896.27c44.59,29.27,110.3,53.23,199.47,36.31,55.27-10.49,115.21-37.48,155-81.46C771.08,819.8,795.63,770.9,798,708L582,749Z" transform="translate(-74.83 -180.9)"/><path class="cls-49" d="M555.56,608.59l384.33-72.94,1.91,10.05c10.73,56.52,36.19,233.53-57.3,370-70.49,102.92-172.44,147.23-276.69,167s-216.31,18.93-325.4-55.35C248,1004,132.56,916.58,96.81,728.19c-30.75-162,23.56-274.87,64-334.85,51-75.72,144-160,306-190.8,62.8-11.92,131.12-14,201.76,7.25,59.13,17.79,127.82,56.42,186.08,123.43L727.25,436.77c-39.62-51-87.72-72.09-116.8-80.63-38.4-11.27-84.14-11.35-123.07-4C420.81,364.81,350,403,308,463c-38.91,55.53-60.07,142.82-42.2,237C287,811.8,347.4,869.3,389,896.54c44.59,29.27,110.3,53.24,199.48,36.31,55.26-10.48,115.2-37.47,155-81.46,27.88-31.32,52.43-80.22,54.81-143.13l-216,41Z" transform="translate(-74.83 -180.9)"/><path class="cls-50" d="M555.84,608.86l384.33-72.94L942.08,546c10.73,56.52,36.19,233.53-57.3,370-70.49,102.92-172.44,147.24-276.69,167s-216.31,18.94-325.4-55.35c-34.37-23.4-149.85-110.79-185.6-299.19-30.75-162,23.56-274.87,64-334.85,51-75.72,144-160,306-190.8,62.8-11.92,131.12-14,201.76,7.25C728,227.86,796.65,266.48,854.91,333.5L727.53,437.05c-39.62-51-87.72-72.1-116.8-80.63-38.4-11.27-84.13-11.36-123.07-4-66.57,12.63-137.4,50.8-179.36,110.81-38.91,55.53-60.07,142.83-42.2,237,21.22,111.78,81.58,169.29,123.18,196.53,44.6,29.27,110.3,53.23,199.48,36.31,55.26-10.49,115.2-37.48,155-81.47,27.88-31.32,52.44-80.22,54.81-143.13l-216,41Z" transform="translate(-74.83 -180.9)"/><path class="cls-51" d="M556.12,609.14,940.45,536.2l1.91,10c10.73,56.52,36.19,233.53-57.3,370-70.49,102.91-172.44,147.23-276.69,167s-216.31,18.93-325.4-55.36c-34.37-23.4-149.85-110.79-185.6-299.19-30.75-162,23.56-274.87,64-334.84,51-75.72,144-160,306-190.8,62.8-11.92,131.12-14,201.76,7.25,59.13,17.79,127.82,56.41,186.08,123.43L727.81,437.32c-39.62-51-87.72-72.09-116.8-80.63-38.4-11.27-84.13-11.36-123.07-4-66.57,12.64-137.4,50.8-179.36,110.82-38.91,55.53-60.07,142.82-42.2,237C287.6,812.34,348,869.85,389.56,897.09c44.6,29.27,110.3,53.23,199.48,36.31,55.26-10.49,115.2-37.48,155-81.46,27.88-31.32,52.44-80.22,54.81-143.13l-216,41Z" transform="translate(-74.83 -180.9)"/><path class="cls-52" d="M556.4,609.41l384.33-72.94,1.91,10c10.73,56.52,36.19,233.53-57.29,370-70.5,102.92-172.45,147.23-276.7,167s-216.31,18.93-325.4-55.35C248.88,1004.79,133.4,917.4,97.65,729c-30.75-162,23.56-274.87,64-334.85,51-75.72,144-160,306-190.8,62.8-11.92,131.12-14,201.76,7.25C728.52,228.4,797.21,267,855.47,334L728.09,437.59c-39.62-51-87.72-72.09-116.8-80.63-38.4-11.27-84.13-11.35-123.07-4-66.57,12.63-137.4,50.8-179.36,110.81-38.91,55.53-60.07,142.82-42.2,237,21.22,111.79,81.58,169.29,123.18,196.53,44.6,29.27,110.3,53.24,199.48,36.31,55.26-10.48,115.2-37.47,155-81.46,27.88-31.32,52.44-80.22,54.81-143.13l-216,41Z" transform="translate(-74.83 -180.9)"/><path class="cls-53" d="M556.68,609.68,941,536.74l1.9,10c10.73,56.52,36.19,233.53-57.29,370-70.5,102.92-172.45,147.24-276.7,167s-216.31,18.94-325.4-55.35c-34.37-23.4-149.85-110.79-185.6-299.19-30.75-162,23.56-274.87,64-334.85,51-75.72,144-160,306-190.8,62.8-11.92,131.12-14,201.76,7.25,59.13,17.8,127.82,56.42,186.08,123.44L728.37,437.87c-39.62-51-87.72-72.1-116.8-80.63-38.4-11.27-84.13-11.36-123.07-4-66.57,12.63-137.4,50.8-179.36,110.81-38.9,55.53-60.07,142.83-42.2,237,21.22,111.78,81.58,169.29,123.18,196.53,44.6,29.27,110.3,53.23,199.48,36.31,55.26-10.49,115.2-37.48,155-81.47,27.89-31.32,52.44-80.22,54.81-143.13l-216,41Z" transform="translate(-74.83 -180.9)"/><path class="cls-54" d="M557,610,941.3,537l1.9,10c10.73,56.52,36.19,233.53-57.29,370-70.5,102.91-172.45,147.23-276.7,167S392.9,1103,283.81,1028.74C249.44,1005.34,134,918,98.21,729.55c-30.75-162,23.56-274.87,64-334.84,51-75.72,144-160,306-190.8C531,192,599.31,189.9,670,211.16,729.08,229,797.77,267.57,856,334.59L728.65,438.14c-39.62-51-87.72-72.09-116.8-80.63-38.4-11.27-84.13-11.36-123.07-4-66.57,12.64-137.4,50.8-179.36,110.82-38.9,55.52-60.07,142.82-42.19,237,21.21,111.78,81.57,169.29,123.18,196.53C435,927.18,500.7,951.14,589.88,934.22c55.26-10.49,115.2-37.48,155-81.46,27.89-31.32,52.44-80.22,54.81-143.13l-216,41Z" transform="translate(-74.83 -180.9)"/><path class="cls-55" d="M557.24,610.23l384.34-72.94,1.9,10.05c10.73,56.52,36.19,233.53-57.29,370-70.5,102.92-172.45,147.23-276.7,167S393.18,1103.3,284.09,1029c-34.37-23.41-149.85-110.8-185.6-299.19C67.74,567.8,122.05,455,162.46,395c51-75.72,144-160,306-190.8,62.8-11.92,131.12-14,201.77,7.25,59.12,17.79,127.81,56.42,186.07,123.43L728.93,438.41c-39.62-51-87.72-72.09-116.8-80.63-38.4-11.27-84.13-11.35-123.07-4-66.57,12.63-137.4,50.8-179.36,110.81-38.9,55.53-60.07,142.82-42.19,237,21.21,111.79,81.57,169.29,123.18,196.53,44.59,29.27,110.29,53.24,199.47,36.31C645.42,924,705.36,897,745.16,853,773.05,821.71,797.6,772.81,800,709.9l-216,41Z" transform="translate(-74.83 -180.9)"/><path class="cls-56" d="M557.52,610.5l384.34-72.94,1.9,10.05c10.73,56.52,36.19,233.53-57.29,370-70.5,102.92-172.45,147.24-276.7,167s-216.31,18.94-325.4-55.35C250,1005.89,134.52,918.5,98.77,730.1c-30.75-162,23.56-274.87,64-334.85,51-75.72,144-160,306-190.8,62.8-11.92,131.12-14,201.77,7.25,59.12,17.8,127.81,56.42,186.07,123.44L729.21,438.69c-39.62-51-87.72-72.1-116.8-80.63-38.4-11.28-84.13-11.36-123.07-4C422.77,366.72,351.94,404.89,310,464.9c-38.9,55.53-60.07,142.83-42.19,237C289,813.71,349.36,871.22,391,898.46c44.59,29.27,110.29,53.23,199.47,36.31,55.26-10.49,115.2-37.48,155-81.47,27.89-31.32,52.44-80.22,54.81-143.13l-216,41Z" transform="translate(-74.83 -180.9)"/><path class="cls-57" d="M557.81,610.78l384.33-72.94,1.9,10c10.73,56.52,36.19,233.53-57.29,370-70.5,102.91-172.45,147.23-276.7,167s-216.31,18.93-325.4-55.36c-34.37-23.4-149.85-110.79-185.6-299.19-30.75-162,23.56-274.87,64-334.84,51-75.72,144-160,306-190.8,62.8-11.92,131.12-14,201.77,7.25,59.12,17.79,127.81,56.41,186.08,123.43L729.49,439c-39.61-51-87.72-72.09-116.8-80.63-38.4-11.27-84.13-11.36-123.07-4C423.06,367,352.23,405.16,310.26,465.18c-38.9,55.52-60.07,142.82-42.19,237C289.28,814,349.64,871.49,391.25,898.73,435.84,928,501.54,952,590.72,935c55.26-10.49,115.2-37.48,155-81.46,27.89-31.32,52.44-80.22,54.81-143.13l-216,41Z" transform="translate(-74.83 -180.9)"/><path class="cls-58" d="M558.09,611.05l384.33-72.94,1.9,10c10.73,56.52,36.19,233.53-57.29,370-70.5,102.92-172.45,147.23-276.69,167S394,1104.12,284.93,1029.84C250.56,1006.43,135.08,919,99.33,730.65c-30.75-162,23.56-274.87,64-334.85,51-75.72,144-160,306-190.8,62.8-11.92,131.12-14,201.77,7.25C730.2,230,798.89,268.67,857.16,335.68L729.77,439.23c-39.61-51-87.72-72.09-116.8-80.63-38.4-11.27-84.13-11.35-123.07-4-66.56,12.63-137.39,50.8-179.36,110.81-38.9,55.53-60.07,142.82-42.19,237C289.56,814.26,349.92,871.76,391.53,899c44.59,29.27,110.29,53.24,199.47,36.31,55.26-10.48,115.2-37.47,155-81.46,27.89-31.32,52.44-80.22,54.81-143.13l-216,41Z" transform="translate(-74.83 -180.9)"/><path class="cls-59" d="M558.37,611.32,942.7,538.38l1.91,10c10.72,56.52,36.18,233.53-57.3,370-70.5,102.92-172.45,147.24-276.69,167s-216.32,18.94-325.41-55.35c-34.37-23.4-149.84-110.79-185.6-299.19-30.75-162,23.56-274.87,64-334.85,51-75.72,144-160,306-190.8,62.8-11.92,131.13-14,201.77,7.25,59.13,17.8,127.81,56.42,186.08,123.44L730.05,439.51c-39.61-51-87.72-72.1-116.8-80.63-38.4-11.28-84.13-11.36-123.07-4-66.56,12.63-137.39,50.8-179.35,110.81-38.91,55.53-60.08,142.83-42.2,237C289.84,814.53,350.2,872,391.81,899.28c44.59,29.27,110.29,53.23,199.47,36.31,55.26-10.49,115.2-37.48,155-81.47C774.17,822.8,798.72,773.9,801.09,711l-216,41Z" transform="translate(-74.83 -180.9)"/><path class="cls-60" d="M558.65,611.6,943,538.66l1.91,10c10.72,56.52,36.19,233.53-57.3,370-70.5,102.91-172.45,147.23-276.69,167s-216.32,18.93-325.41-55.36C251.12,1007,135.65,919.59,99.89,731.19c-30.75-162,23.56-274.87,64-334.84,51-75.72,144-160,306-190.8,62.8-11.92,131.13-14,201.77,7.25,59.13,17.79,127.82,56.41,186.08,123.43L730.33,439.78c-39.61-51-87.72-72.09-116.8-80.63-38.4-11.27-84.13-11.36-123.07-4C423.9,367.82,353.07,406,311.11,466,272.2,521.52,251,608.82,268.91,703c21.21,111.78,81.57,169.29,123.18,196.53,44.59,29.27,110.3,53.23,199.47,36.31,55.26-10.49,115.2-37.48,155-81.46,27.89-31.32,52.44-80.22,54.81-143.13l-216,41Z" transform="translate(-74.83 -180.9)"/><path class="cls-61" d="M558.93,611.87l384.33-72.94L945.17,549c10.72,56.52,36.19,233.53-57.3,370-70.5,102.92-172.45,147.23-276.69,167s-216.32,18.93-325.4-55.35c-34.37-23.41-149.85-110.8-185.61-299.19-30.75-162,23.56-274.87,64-334.85,51-75.72,144-160,306-190.8,62.8-11.92,131.13-14,201.77,7.25C731.05,230.86,799.74,269.49,858,336.5L730.61,440.05C691,389,642.89,368,613.81,359.42c-38.4-11.27-84.13-11.35-123.07-4-66.56,12.63-137.39,50.8-179.35,110.81-38.91,55.53-60.08,142.82-42.2,237,21.21,111.79,81.57,169.29,123.18,196.53,44.59,29.27,110.3,53.24,199.47,36.31,55.26-10.48,115.2-37.47,155-81.46,27.89-31.32,52.44-80.22,54.81-143.13l-216,41Z" transform="translate(-74.83 -180.9)"/><path class="cls-62" d="M559.21,612.14,943.54,539.2l1.91,10c10.72,56.52,36.19,233.53-57.3,370-70.5,102.92-172.45,147.24-276.69,167s-216.32,18.94-325.4-55.35c-34.37-23.4-149.85-110.79-185.61-299.19-30.75-162,23.56-274.87,64-334.85,51-75.72,144-160,306-190.8,62.8-11.92,131.13-14,201.77,7.25,59.13,17.8,127.82,56.42,186.08,123.44L730.89,440.33c-39.61-51-87.72-72.1-116.8-80.63-38.4-11.28-84.13-11.36-123.06-4-66.57,12.63-137.4,50.8-179.36,110.81-38.91,55.53-60.08,142.83-42.2,237,21.21,111.78,81.58,169.29,123.18,196.53,44.59,29.27,110.3,53.23,199.47,36.31,55.27-10.49,115.2-37.48,155-81.47,27.89-31.32,52.44-80.22,54.81-143.13l-216,41Z" transform="translate(-74.83 -180.9)"/><path class="cls-63" d="M559.49,612.42l384.33-72.94,1.91,10c10.72,56.52,36.19,233.53-57.3,370-70.5,102.91-172.45,147.23-276.69,167s-216.32,18.93-325.4-55.36C252,1007.8,136.49,920.41,100.73,732,70,570,124.29,457.14,164.7,397.17c51-75.72,144-160,306-190.8,62.8-11.92,131.13-14,201.77,7.25C731.61,231.41,800.3,270,858.56,337.05L731.17,440.6c-39.61-51-87.72-72.09-116.8-80.63-38.4-11.27-84.13-11.36-123.06-4C424.74,368.64,353.91,406.8,312,466.82c-38.91,55.52-60.08,142.82-42.2,237C291,815.62,351.33,873.13,392.93,900.37c44.59,29.27,110.3,53.23,199.47,36.31,55.27-10.49,115.2-37.48,155-81.46,27.89-31.32,52.44-80.22,54.81-143.13l-216,41Z" transform="translate(-74.83 -180.9)"/><path class="cls-64" d="M559.77,612.69,944.1,539.75l1.91,10c10.72,56.52,36.19,233.53-57.3,370-70.5,102.92-172.44,147.23-276.69,167s-216.32,18.93-325.4-55.35C252.25,1008.07,136.77,920.68,101,732.29c-30.75-162,23.56-274.87,64-334.85,51-75.72,144-160,306-190.8,62.8-11.92,131.13-14,201.77,7.25,59.13,17.79,127.82,56.42,186.08,123.43L731.45,440.87c-39.61-51-87.72-72.09-116.8-80.63-38.4-11.27-84.13-11.35-123.06-4-66.57,12.63-137.4,50.8-179.36,110.81-38.91,55.53-60.08,142.82-42.2,237C291.24,815.9,351.61,873.4,393.21,900.64c44.59,29.27,110.3,53.24,199.47,36.31,55.27-10.48,115.21-37.47,155-81.46,27.89-31.32,52.44-80.22,54.82-143.13l-216,41Z" transform="translate(-74.83 -180.9)"/><path class="cls-65" d="M560.05,613,944.38,540l1.91,10.05c10.72,56.52,36.19,233.53-57.3,370-70.5,102.92-172.44,147.24-276.69,167S396,1106,286.9,1031.75C252.53,1008.35,137.05,921,101.29,732.56c-30.75-162,23.57-274.87,64-334.85,51-75.72,144-160,306-190.8,62.8-11.92,131.13-14,201.77,7.25C732.17,232,800.86,270.58,859.12,337.6L731.73,441.15c-39.61-51-87.72-72.1-116.79-80.63-38.41-11.28-84.14-11.36-123.07-4-66.57,12.63-137.4,50.8-179.36,110.81-38.91,55.53-60.08,142.83-42.2,237,21.22,111.78,81.58,169.29,123.18,196.53,44.59,29.27,110.3,53.23,199.47,36.31,55.27-10.49,115.21-37.48,155-81.47,27.89-31.32,52.44-80.22,54.82-143.13l-216,41Z" transform="translate(-74.83 -180.9)"/><path class="cls-66" d="M560.33,613.24,944.66,540.3l1.91,10c10.73,56.52,36.19,233.53-57.3,370-70.5,102.91-172.44,147.23-276.69,167s-216.31,18.93-325.4-55.36c-34.37-23.4-149.85-110.79-185.61-299.19-30.75-162,23.57-274.87,64-334.84,51-75.72,144-160,306-190.8,62.8-11.92,131.13-14,201.77,7.25,59.13,17.79,127.82,56.41,186.08,123.43L732,441.42c-39.61-51-87.71-72.09-116.79-80.63-38.41-11.27-84.14-11.36-123.07-4-66.57,12.64-137.4,50.8-179.36,110.82-38.91,55.52-60.08,142.82-42.2,237C291.81,816.44,352.17,874,393.77,901.19c44.59,29.27,110.3,53.23,199.47,36.31C648.51,927,708.45,900,748.24,856c27.89-31.32,52.44-80.22,54.82-143.13l-216,41Z" transform="translate(-74.83 -180.9)"/><path class="cls-67" d="M560.61,613.51l384.33-72.94,1.91,10c10.73,56.52,36.19,233.53-57.3,370-70.49,102.92-172.44,147.23-276.69,167s-216.31,18.93-325.4-55.35c-34.37-23.41-149.85-110.8-185.61-299.19-30.75-162,23.57-274.87,64-334.85,51-75.72,144-160,306-190.8,62.79-11.92,131.12-14,201.76,7.25,59.13,17.79,127.82,56.42,186.08,123.43L732.29,441.69c-39.61-51-87.71-72.09-116.79-80.63-38.4-11.27-84.14-11.35-123.07-4C425.86,369.73,355,407.9,313.07,467.91c-38.91,55.53-60.08,142.82-42.2,237,21.22,111.79,81.58,169.29,123.18,196.53,44.59,29.27,110.3,53.24,199.47,36.31,55.27-10.48,115.21-37.47,155-81.46C776.41,825,801,776.09,803.34,713.18l-216,41Z" transform="translate(-74.83 -180.9)"/><path class="cls-68" d="M560.89,613.78l384.33-72.94,1.91,10c10.73,56.52,36.19,233.53-57.3,370-70.49,102.92-172.44,147.24-276.69,167s-216.31,18.94-325.4-55.35c-34.37-23.41-149.85-110.79-185.61-299.19-30.75-162,23.57-274.87,64-334.85,51-75.72,144-160,306-190.8,62.8-11.92,131.12-14,201.76,7.25C733,232.78,801.7,271.4,860,338.42L732.57,442c-39.61-51-87.71-72.1-116.79-80.63-38.4-11.28-84.14-11.36-123.07-4-66.57,12.63-137.4,50.8-179.36,110.81-38.91,55.53-60.08,142.83-42.2,237C292.37,817,352.73,874.5,394.33,901.74,438.92,931,504.63,955,593.8,938.05c55.27-10.49,115.21-37.48,155-81.47,27.89-31.32,52.44-80.22,54.82-143.13l-216,41Z" transform="translate(-74.83 -180.9)"/><path class="cls-69" d="M561.17,614.06,945.5,541.12l1.91,10c10.73,56.52,36.19,233.53-57.3,370-70.49,102.91-172.44,147.23-276.69,167s-216.31,18.93-325.4-55.36c-34.37-23.4-149.85-110.79-185.61-299.19-30.75-162,23.57-274.87,64-334.84,51-75.72,144-160,306-190.8,62.8-11.92,131.12-14,201.76,7.25C733.29,233.05,802,271.67,860.24,338.69L732.85,442.24c-39.61-51-87.71-72.09-116.79-80.63-38.4-11.27-84.14-11.36-123.07-4-66.57,12.64-137.4,50.8-179.36,110.82-38.91,55.52-60.08,142.82-42.2,237C292.65,817.26,353,874.77,394.61,902c44.59,29.27,110.3,53.23,199.47,36.31,55.27-10.49,115.21-37.48,155-81.46,27.89-31.32,52.44-80.22,54.82-143.13l-216,41Z" transform="translate(-74.83 -180.9)"/><path class="cls-70" d="M561.45,614.33l384.33-72.94,1.91,10.05c10.73,56.52,36.19,233.53-57.3,370-70.49,102.92-172.44,147.23-276.69,167s-216.31,18.93-325.4-55.35c-34.37-23.41-149.85-110.8-185.61-299.19-30.75-162,23.57-274.87,64-334.85,51-75.72,144-160,306-190.8,62.8-11.92,131.12-14,201.76,7.25C733.57,233.32,802.26,272,860.52,339L733.14,442.51c-39.62-51-87.72-72.09-116.8-80.63-38.4-11.27-84.14-11.35-123.07-4-66.57,12.63-137.4,50.8-179.36,110.81-38.91,55.53-60.08,142.82-42.2,237C292.93,817.54,353.29,875,394.89,902.28c44.59,29.27,110.3,53.24,199.47,36.31,55.27-10.48,115.21-37.47,155-81.46,27.88-31.32,52.43-80.22,54.81-143.13l-216,41Z" transform="translate(-74.83 -180.9)"/><path class="cls-71" d="M561.73,614.6l384.33-72.94L948,551.71c10.73,56.52,36.19,233.53-57.3,370C820.18,1024.64,718.23,1069,614,1088.74s-216.31,18.94-325.4-55.35C254.21,1010,138.73,922.6,103,734.2c-30.75-162,23.56-274.87,64-334.85,51-75.72,144-160,306-190.8,62.8-11.92,131.12-14,201.76,7.25,59.13,17.8,127.82,56.42,186.08,123.44L733.42,442.79c-39.62-51-87.72-72.1-116.8-80.63-38.4-11.28-84.14-11.36-123.07-4C427,370.82,356.15,409,314.19,469c-38.91,55.53-60.07,142.83-42.2,237,21.22,111.78,81.58,169.29,123.18,196.53,44.59,29.27,110.3,53.23,199.48,36.31,55.26-10.49,115.2-37.48,155-81.47,27.88-31.32,52.43-80.22,54.81-143.13l-216,41Z" transform="translate(-74.83 -180.9)"/><path class="cls-72" d="M562,614.88l384.33-72.94,1.91,10C959,608.5,984.44,785.51,891,922c-70.49,102.91-172.44,147.23-276.69,167S398,1108,288.86,1033.66c-34.37-23.4-149.85-110.79-185.6-299.19-30.75-162,23.56-274.87,64-334.84,51-75.72,144-160,306-190.8,62.8-11.92,131.12-14,201.76,7.25,59.13,17.79,127.82,56.41,186.08,123.43L733.7,443.06C694.08,392,646,371,616.9,362.43c-38.4-11.27-84.13-11.36-123.07-4-66.57,12.64-137.4,50.8-179.36,110.82-38.91,55.52-60.07,142.82-42.2,237,21.22,111.78,81.58,169.29,123.18,196.53,44.6,29.27,110.3,53.23,199.48,36.31,55.26-10.49,115.2-37.48,155-81.46,27.88-31.32,52.44-80.22,54.81-143.13l-216,41Z" transform="translate(-74.83 -180.9)"/><path class="cls-73" d="M562.29,615.15l384.33-72.94,1.91,10c10.73,56.52,36.19,233.53-57.3,370-70.49,102.92-172.44,147.23-276.69,167s-216.31,18.93-325.4-55.35c-34.37-23.41-149.85-110.8-185.6-299.19-30.75-162,23.56-274.87,64-334.85,51-75.72,144-160,306-190.8,62.8-11.92,131.12-14,201.76,7.25,59.13,17.79,127.82,56.42,186.08,123.43L734,443.33c-39.62-51-87.72-72.09-116.8-80.63-38.4-11.27-84.13-11.35-123.07-4-66.57,12.63-137.4,50.8-179.36,110.81-38.91,55.53-60.07,142.82-42.2,237,21.22,111.79,81.58,169.29,123.18,196.53,44.6,29.27,110.3,53.24,199.48,36.31,55.26-10.48,115.2-37.47,155-81.46,27.88-31.32,52.44-80.22,54.81-143.13l-216,41Z" transform="translate(-74.83 -180.9)"/><path class="cls-74" d="M562.57,615.42,946.9,542.48l1.91,10c10.73,56.52,36.19,233.53-57.29,370-70.5,102.92-172.45,147.24-276.7,167s-216.31,18.94-325.4-55.35C255.05,1010.8,139.57,923.42,103.82,735c-30.75-162,23.56-274.87,64-334.85,51-75.72,144-160,306-190.8,62.8-11.92,131.12-14,201.76,7.25,59.13,17.8,127.82,56.42,186.08,123.44L734.26,443.61c-39.62-51-87.72-72.1-116.8-80.63-38.4-11.28-84.13-11.36-123.07-4C427.82,371.64,357,409.81,315,469.82c-38.91,55.53-60.07,142.83-42.2,237C294.05,818.63,354.41,876.14,396,903.38c44.6,29.27,110.3,53.23,199.48,36.31,55.26-10.49,115.2-37.48,155-81.47C778.37,826.9,802.93,778,805.3,715.09l-216,41Z" transform="translate(-74.83 -180.9)"/><path class="cls-75" d="M562.85,615.7l384.34-72.94,1.9,10c10.73,56.52,36.19,233.53-57.29,370-70.5,102.91-172.45,147.23-276.7,167s-216.31,18.93-325.4-55.36c-34.37-23.4-149.85-110.79-185.6-299.19-30.75-162,23.56-274.87,64-334.84,51-75.72,144-160,306-190.8,62.8-11.92,131.12-14,201.76,7.25C735,234.69,803.66,273.31,861.92,340.33L734.54,443.88c-39.62-51-87.72-72.09-116.8-80.63-38.4-11.27-84.13-11.36-123.07-4-66.57,12.64-137.4,50.8-179.36,110.82-38.9,55.52-60.07,142.82-42.2,237,21.22,111.78,81.58,169.29,123.18,196.53,44.6,29.27,110.3,53.23,199.48,36.31,55.26-10.49,115.2-37.48,155-81.46,27.89-31.32,52.44-80.22,54.81-143.13l-216,41Z" transform="translate(-74.83 -180.9)"/><path class="cls-76" d="M563.13,616,947.47,543l1.9,10.05c10.73,56.52,36.19,233.53-57.29,370-70.5,102.92-172.45,147.23-276.7,167S399.07,1109,290,1034.76c-34.37-23.41-149.85-110.8-185.6-299.19-30.75-162,23.56-274.87,64-334.85,51-75.72,144-160.05,306-190.8,62.8-11.92,131.12-14,201.76,7.25C735.25,235,803.94,273.59,862.2,340.6L734.82,444.15c-39.62-51-87.72-72.09-116.8-80.63-38.4-11.27-84.13-11.35-123.07-4-66.57,12.63-137.4,50.8-179.36,110.81-38.9,55.53-60.07,142.82-42.19,237C294.61,819.18,355,876.68,396.58,903.92c44.59,29.27,110.29,53.24,199.47,36.31,55.26-10.48,115.2-37.47,155-81.46,27.89-31.32,52.44-80.22,54.81-143.13l-216,41Z" transform="translate(-74.83 -180.9)"/><path class="cls-77" d="M563.41,616.24,947.75,543.3l1.9,10.05c10.73,56.52,36.19,233.53-57.29,370-70.5,102.92-172.45,147.24-276.7,167s-216.31,18.94-325.4-55.35c-34.37-23.41-149.85-110.79-185.6-299.19-30.75-162,23.56-274.87,64-334.85,51-75.72,144-160,306-190.8,62.8-11.92,131.12-14,201.77,7.25,59.12,17.8,127.81,56.42,186.07,123.44L735.1,444.43c-39.62-51-87.72-72.1-116.8-80.63-38.4-11.28-84.13-11.36-123.07-4-66.57,12.63-137.4,50.8-179.36,110.81-38.9,55.53-60.07,142.83-42.19,237C294.89,819.45,355.25,877,396.86,904.2c44.59,29.27,110.29,53.23,199.47,36.31C651.59,930,711.53,903,751.33,859c27.89-31.32,52.44-80.22,54.81-143.13l-216,41Z" transform="translate(-74.83 -180.9)"/><path class="cls-78" d="M563.69,616.52,948,543.57l1.9,10c10.73,56.52,36.19,233.53-57.29,370-70.5,102.91-172.45,147.23-276.7,167s-216.31,18.93-325.4-55.36c-34.37-23.4-149.85-110.79-185.6-299.19-30.75-162,23.56-274.87,64-334.84,51-75.72,144-160,306-190.8,62.8-11.92,131.12-14,201.77,7.25,59.12,17.79,127.81,56.41,186.07,123.43L735.38,444.7c-39.62-51-87.72-72.09-116.8-80.63-38.4-11.27-84.13-11.36-123.07-4-66.57,12.64-137.4,50.8-179.36,110.82-38.9,55.52-60.07,142.82-42.19,237,21.21,111.78,81.57,169.29,123.18,196.53,44.59,29.27,110.29,53.23,199.47,36.31,55.26-10.49,115.2-37.48,155-81.46C779.5,828,804.05,779.1,806.42,716.19l-216,41Z" transform="translate(-74.83 -180.9)"/><path class="cls-79" d="M564,616.79l384.34-72.94,1.9,10c10.73,56.52,36.19,233.53-57.29,370-70.5,102.92-172.45,147.23-276.7,167s-216.31,18.93-325.4-55.35c-34.37-23.41-149.85-110.8-185.6-299.19-30.75-162,23.56-274.87,64-334.85,51-75.72,144-160,306-190.8C538,198.82,606.32,196.73,677,218c59.12,17.79,127.81,56.42,186.08,123.43L735.66,445c-39.61-51-87.72-72.09-116.8-80.63-38.4-11.27-84.13-11.35-123.07-4C429.23,373,358.4,411.18,316.43,471.19c-38.9,55.53-60.07,142.82-42.19,237C295.45,820,355.81,877.5,397.42,904.74,442,934,507.71,958,596.89,941.05c55.26-10.48,115.2-37.47,155-81.46,27.89-31.32,52.44-80.22,54.81-143.13l-216,41Z" transform="translate(-74.83 -180.9)"/><path class="cls-80" d="M564.26,617.06l384.33-72.94,1.9,10c10.73,56.52,36.19,233.53-57.29,370-70.5,102.92-172.45,147.24-276.69,167s-216.32,18.94-325.41-55.35c-34.37-23.41-149.85-110.79-185.6-299.19-30.75-162,23.56-274.87,64-334.85,51-75.72,144-160,306-190.8,62.8-11.92,131.12-14,201.77,7.25,59.12,17.8,127.81,56.42,186.08,123.44L735.94,445.25c-39.61-51-87.72-72.1-116.8-80.63-38.4-11.28-84.13-11.36-123.07-4-66.56,12.63-137.39,50.8-179.36,110.81-38.9,55.53-60.07,142.83-42.19,237C295.73,820.27,356.09,877.78,397.7,905c44.59,29.27,110.29,53.23,199.47,36.31,55.26-10.49,115.2-37.48,155-81.47,27.89-31.32,52.44-80.22,54.81-143.13l-216,41Z" transform="translate(-74.83 -180.9)"/><path class="cls-81" d="M564.54,617.34l384.33-73,1.91,10.05C961.5,611,987,788,893.48,924.46c-70.5,102.91-172.45,147.23-276.69,167s-216.32,18.93-325.41-55.36c-34.37-23.4-149.84-110.79-185.6-299.19-30.75-162,23.56-274.87,64-334.84,51-75.72,144-160,306-190.8,62.8-11.92,131.13-14,201.77,7.25C736.66,236.33,805.34,275,863.61,342L736.22,445.52c-39.61-51-87.72-72.09-116.8-80.63-38.4-11.27-84.13-11.36-123.07-4C429.79,373.56,359,411.72,317,471.74c-38.91,55.52-60.08,142.82-42.2,237C296,820.54,356.37,878.05,398,905.29c44.59,29.27,110.29,53.23,199.47,36.31,55.26-10.49,115.2-37.48,155-81.46,27.89-31.32,52.44-80.22,54.81-143.13l-216,41Z" transform="translate(-74.83 -180.9)"/><path class="cls-82" d="M564.82,617.61l384.33-72.94,1.91,10.05c10.72,56.52,36.19,233.53-57.3,370-70.5,102.92-172.45,147.23-276.69,167s-216.32,18.93-325.41-55.35C257.29,1013,141.82,925.6,106.06,737.21c-30.75-162,23.56-274.87,64-334.85,51-75.72,144-160,306-190.8,62.8-11.92,131.13-14,201.77,7.25,59.13,17.79,127.82,56.42,186.08,123.43L736.5,445.79c-39.61-51-87.72-72.09-116.8-80.63-38.4-11.27-84.13-11.35-123.07-4C430.07,373.83,359.24,412,317.28,472c-38.91,55.53-60.08,142.82-42.2,237,21.21,111.79,81.57,169.29,123.18,196.53,44.59,29.27,110.3,53.24,199.47,36.31,55.26-10.48,115.2-37.47,155-81.46,27.89-31.32,52.44-80.22,54.81-143.13l-216,41Z" transform="translate(-74.83 -180.9)"/><path class="cls-83" d="M565.1,617.88l384.33-72.94,1.91,10c10.72,56.52,36.19,233.53-57.3,370-70.5,102.92-172.45,147.24-276.69,167S401,1111,292,1036.67c-34.37-23.41-149.85-110.79-185.61-299.19-30.75-162,23.56-274.87,64-334.85,51-75.72,144-160,306-190.8,62.8-11.92,131.13-14,201.77,7.25,59.13,17.8,127.82,56.42,186.08,123.44L736.78,446.07C697.17,395,649.06,374,620,365.44c-38.4-11.28-84.13-11.36-123.07-4-66.56,12.63-137.39,50.8-179.35,110.81-38.91,55.53-60.08,142.83-42.2,237,21.21,111.78,81.57,169.29,123.18,196.52,44.59,29.28,110.3,53.24,199.47,36.32,55.26-10.49,115.2-37.48,155-81.47,27.89-31.32,52.44-80.22,54.81-143.13l-216,41Z" transform="translate(-74.83 -180.9)"/><path class="cls-84" d="M565.38,618.16l384.33-72.95,1.91,10c10.72,56.52,36.19,233.53-57.3,370-70.5,102.91-172.45,147.23-276.69,167s-216.32,18.93-325.4-55.36c-34.37-23.4-149.85-110.79-185.61-299.19-30.75-162,23.56-274.87,64-334.84,51-75.72,144-160,306-190.8,62.8-11.92,131.13-14,201.77,7.25,59.13,17.79,127.82,56.41,186.08,123.43L737.06,446.34c-39.61-51-87.72-72.09-116.8-80.63-38.4-11.27-84.13-11.36-123.06-4-66.57,12.64-137.4,50.8-179.36,110.82-38.91,55.52-60.08,142.82-42.2,237,21.21,111.78,81.58,169.29,123.18,196.53,44.59,29.27,110.3,53.23,199.47,36.31,55.27-10.49,115.2-37.48,155-81.46,27.89-31.32,52.44-80.22,54.81-143.13l-216,41Z" transform="translate(-74.83 -180.9)"/><path class="cls-85" d="M565.66,618.43,950,545.49l1.91,10c10.72,56.52,36.19,233.53-57.3,370-70.5,102.92-172.45,147.23-276.69,167s-216.32,18.93-325.4-55.35C258.14,1013.81,142.66,926.42,106.9,738c-30.75-162,23.56-274.87,64-334.85,51-75.72,144-160,306-190.8,62.8-11.92,131.13-14,201.77,7.25,59.13,17.79,127.82,56.42,186.08,123.43L737.34,446.61c-39.61-51-87.72-72.09-116.8-80.63-38.4-11.27-84.13-11.35-123.06-4-66.57,12.63-137.4,50.8-179.36,110.81-38.91,55.53-60.08,142.82-42.2,237C297.13,821.64,357.5,879.14,399.1,906.38c44.59,29.27,110.3,53.24,199.47,36.31,55.27-10.48,115.2-37.47,155-81.46C781.46,829.91,806,781,808.38,718.1l-216,41Z" transform="translate(-74.83 -180.9)"/><path class="cls-86" d="M565.94,618.7l384.33-72.94,1.91,10c10.72,56.52,36.19,233.53-57.3,370-70.5,102.92-172.44,147.24-276.69,167s-216.32,18.94-325.4-55.35C258.42,1014.08,142.94,926.7,107.18,738.3c-30.75-162,23.56-274.87,64-334.85,51-75.72,144-160,306-190.8,62.8-11.92,131.13-14,201.77,7.25C738.06,237.7,806.75,276.32,865,343.34L737.62,446.89c-39.61-51-87.72-72.1-116.8-80.63-38.4-11.28-84.13-11.36-123.06-4-66.57,12.63-137.4,50.8-179.36,110.81-38.91,55.53-60.08,142.83-42.2,237,21.21,111.78,81.58,169.29,123.18,196.52C444,935.93,509.68,959.89,598.85,943c55.27-10.49,115.21-37.48,155-81.47,27.89-31.32,52.44-80.22,54.82-143.13l-216,41Z" transform="translate(-74.83 -180.9)"/><path class="cls-87" d="M566.22,619l384.33-73,1.91,10.05c10.72,56.52,36.19,233.53-57.3,370-70.5,102.91-172.44,147.23-276.69,167s-216.31,18.93-325.4-55.36C258.7,1014.36,143.22,927,107.46,738.57c-30.75-162,23.57-274.87,64-334.84,51-75.73,144-160,306-190.8,62.8-11.92,131.13-14,201.77,7.25C738.34,238,807,276.59,865.29,343.61L737.9,447.16c-39.61-51-87.72-72.09-116.79-80.63-38.41-11.27-84.14-11.36-123.07-4-66.57,12.64-137.4,50.8-179.36,110.82-38.91,55.52-60.08,142.82-42.2,237,21.22,111.78,81.58,169.29,123.18,196.53,44.59,29.27,110.3,53.23,199.47,36.31,55.27-10.49,115.21-37.48,155-81.46C782,830.46,806.57,781.56,809,718.65l-216,41Z" transform="translate(-74.83 -180.9)"/><path class="cls-88" d="M566.5,619.25l384.33-72.94,1.91,10.05c10.73,56.52,36.19,233.53-57.3,370-70.5,102.92-172.44,147.23-276.69,167s-216.31,18.93-325.4-55.35C259,1014.63,143.5,927.24,107.74,738.85,77,576.82,131.31,464,171.71,404c51-75.72,144-160,306-190.8,62.8-11.92,131.13-14,201.77,7.25,59.13,17.79,127.82,56.42,186.08,123.43L738.18,447.43c-39.61-51-87.71-72.09-116.79-80.63-38.41-11.27-84.14-11.35-123.07-4-66.57,12.63-137.4,50.8-179.36,110.81-38.91,55.53-60.08,142.82-42.2,237C298,822.46,358.34,880,399.94,907.2c44.59,29.27,110.3,53.24,199.47,36.31,55.27-10.49,115.21-37.47,155-81.46,27.89-31.32,52.44-80.22,54.82-143.13l-216,41Z" transform="translate(-74.83 -180.9)"/><path class="cls-89" d="M566.78,619.52l384.33-72.94,1.91,10c10.73,56.52,36.19,233.53-57.3,370-70.49,102.92-172.44,147.24-276.69,167s-216.31,18.94-325.4-55.35C259.26,1014.9,143.78,927.52,108,739.12c-30.75-162,23.57-274.87,64-334.85,51-75.72,144-160,306-190.8,62.79-11.92,131.12-14,201.76,7.25,59.13,17.8,127.82,56.42,186.08,123.44L738.46,447.71c-39.61-51-87.71-72.1-116.79-80.63-38.4-11.28-84.14-11.36-123.07-4C432,375.74,361.2,413.91,319.24,473.92c-38.91,55.53-60.08,142.83-42.2,237,21.22,111.78,81.58,169.29,123.18,196.52,44.59,29.28,110.3,53.24,199.47,36.32,55.27-10.49,115.21-37.48,155-81.47,27.89-31.32,52.44-80.22,54.82-143.13l-216,41Z" transform="translate(-74.83 -180.9)"/><path class="cls-90" d="M567.06,619.8l384.33-72.95,1.91,10c10.73,56.52,36.19,233.53-57.3,370-70.49,102.91-172.44,147.23-276.69,167s-216.31,18.93-325.4-55.36c-34.37-23.4-149.85-110.79-185.61-299.19-30.75-162,23.57-274.87,64-334.84,51-75.73,144-160,306-190.8,62.8-11.92,131.12-14,201.76,7.25,59.13,17.79,127.82,56.41,186.08,123.43L738.74,448c-39.61-51-87.71-72.09-116.79-80.63-38.4-11.27-84.14-11.36-123.07-4C432.31,376,361.48,414.18,319.52,474.2c-38.91,55.52-60.08,142.82-42.2,237C298.54,823,358.9,880.51,400.5,907.75,445.09,937,510.8,961,600,944.06c55.27-10.49,115.21-37.48,155-81.46,27.89-31.32,52.44-80.22,54.82-143.13l-216,41Z" transform="translate(-74.83 -180.9)"/><path class="cls-91" d="M567.34,620.07l384.33-72.94,1.91,10c10.73,56.52,36.19,233.53-57.3,370-70.49,102.92-172.44,147.23-276.69,167s-216.31,18.93-325.4-55.35c-34.37-23.41-149.85-110.8-185.61-299.19-30.75-162,23.57-274.87,64-334.85,51-75.72,144-160,306-190.8,62.8-11.92,131.12-14,201.76,7.25,59.13,17.79,127.82,56.42,186.08,123.43L739,448.25c-39.61-51-87.71-72.09-116.79-80.63-38.4-11.27-84.14-11.35-123.07-4-66.57,12.63-137.4,50.8-179.36,110.81-38.91,55.53-60.08,142.82-42.2,237C298.82,823.28,359.18,880.78,400.78,908c44.59,29.27,110.3,53.24,199.47,36.31,55.27-10.49,115.21-37.47,155-81.46,27.89-31.32,52.44-80.22,54.82-143.13l-216,41Z" transform="translate(-74.83 -180.9)"/><path class="cls-92" d="M567.62,620.34,952,547.4l1.91,10.05c10.73,56.52,36.19,233.53-57.3,370-70.49,102.92-172.44,147.24-276.69,167s-216.31,18.94-325.4-55.35c-34.37-23.41-149.85-110.79-185.61-299.19-30.75-162,23.57-274.87,64-334.85,51-75.72,144-160,306-190.8,62.8-11.92,131.12-14,201.76,7.25C739.74,239.34,808.43,278,866.69,345L739.31,448.53c-39.62-51-87.72-72.1-116.8-80.63-38.4-11.28-84.14-11.36-123.07-4-66.57,12.63-137.4,50.8-179.36,110.81-38.91,55.53-60.08,142.83-42.2,237,21.22,111.78,81.58,169.29,123.18,196.52,44.59,29.28,110.3,53.24,199.47,36.32,55.27-10.49,115.21-37.48,155-81.47C783.42,831.82,808,782.92,810.35,720l-216,41Z" transform="translate(-74.83 -180.9)"/><path class="cls-93" d="M567.9,620.62l384.33-73,1.91,10.05c10.73,56.52,36.19,233.53-57.3,370-70.49,102.91-172.44,147.23-276.69,167s-216.31,18.93-325.4-55.36C260.38,1016,144.9,928.61,109.15,740.21c-30.75-162,23.56-274.87,64-334.84,51-75.73,144-160,306-190.8,62.8-11.92,131.12-14,201.76,7.25C740,239.61,808.71,278.23,867,345.25L739.59,448.8c-39.62-51-87.72-72.09-116.8-80.63-38.4-11.27-84.14-11.36-123.07-4C433.15,376.84,362.32,415,320.36,475c-38.91,55.52-60.07,142.82-42.2,237,21.22,111.78,81.58,169.29,123.18,196.53,44.59,29.27,110.3,53.23,199.48,36.31,55.26-10.49,115.2-37.48,155-81.46,27.88-31.32,52.43-80.22,54.81-143.13l-216,41Z" transform="translate(-74.83 -180.9)"/><path class="cls-94" d="M568.18,620.89,952.51,548l1.91,10c10.73,56.52,36.19,233.53-57.3,370-70.49,102.92-172.44,147.23-276.69,167S404.12,1114,295,1039.68c-34.37-23.41-149.85-110.8-185.6-299.19-30.75-162,23.56-274.87,64-334.85,51-75.72,144-160,306-190.8,62.8-11.92,131.12-14,201.76,7.25C740.3,239.88,809,278.51,867.25,345.52L739.87,449.07c-39.62-51-87.72-72.09-116.8-80.63-38.4-11.27-84.13-11.35-123.07-4-66.57,12.63-137.4,50.8-179.36,110.81-38.91,55.53-60.07,142.82-42.2,237C299.66,824.1,360,881.6,401.62,908.84c44.6,29.27,110.3,53.24,199.48,36.31,55.26-10.49,115.2-37.47,155-81.46,27.88-31.32,52.44-80.22,54.81-143.13l-216,41Z" transform="translate(-74.83 -180.9)"/><path class="cls-95" d="M568.46,621.16l384.33-72.94,1.91,10c10.73,56.52,36.19,233.53-57.3,370-70.49,102.92-172.44,147.24-276.69,167S404.4,1114.24,295.31,1040c-34.37-23.41-149.85-110.79-185.6-299.19-30.75-162,23.56-274.87,64-334.85,51-75.72,144-160,306-190.8,62.8-11.92,131.12-14,201.76,7.25,59.13,17.8,127.82,56.42,186.08,123.44L740.15,449.35c-39.62-51-87.72-72.1-116.8-80.63-38.4-11.28-84.13-11.36-123.07-4-66.57,12.63-137.4,50.8-179.36,110.81-38.91,55.53-60.07,142.83-42.2,237C299.94,824.37,360.3,881.88,401.9,909.11c44.6,29.28,110.3,53.24,199.48,36.32,55.26-10.49,115.2-37.48,155-81.47,27.88-31.32,52.44-80.22,54.81-143.13l-216,41Z" transform="translate(-74.83 -180.9)"/><path class="cls-96" d="M568.74,621.44l384.33-73,1.91,10c10.73,56.52,36.19,233.53-57.29,370-70.5,102.91-172.45,147.23-276.7,167s-216.31,18.93-325.4-55.36C261.22,1016.82,145.74,929.43,110,741c-30.75-162,23.56-274.87,64-334.84,51-75.73,144-160,306-190.8,62.8-11.92,131.12-14,201.76,7.24,59.13,17.8,127.82,56.42,186.08,123.44L740.43,449.62c-39.62-51-87.72-72.09-116.8-80.63-38.4-11.27-84.13-11.36-123.07-4C434,377.66,363.16,415.82,321.2,475.84c-38.91,55.52-60.07,142.82-42.2,237,21.22,111.78,81.58,169.29,123.18,196.53,44.6,29.27,110.3,53.23,199.48,36.31,55.26-10.49,115.2-37.48,155-81.46,27.88-31.32,52.44-80.22,54.81-143.13l-216,41Z" transform="translate(-74.83 -180.9)"/><path class="cls-97" d="M569,621.71l384.34-72.94,1.9,10.05c10.73,56.52,36.19,233.53-57.29,370-70.5,102.92-172.45,147.23-276.7,167S405,1114.78,295.87,1040.5C261.5,1017.09,146,929.7,110.27,741.31c-30.75-162,23.56-274.87,64-334.85,51-75.72,144-160,306-190.8,62.8-11.92,131.12-14,201.76,7.25,59.13,17.79,127.82,56.42,186.08,123.43L740.71,449.89c-39.62-51-87.72-72.09-116.8-80.63-38.4-11.27-84.13-11.35-123.07-4-66.57,12.63-137.4,50.8-179.36,110.81-38.9,55.53-60.07,142.82-42.2,237,21.22,111.79,81.58,169.29,123.18,196.53,44.6,29.27,110.3,53.24,199.48,36.31,55.26-10.49,115.2-37.47,155-81.46,27.89-31.32,52.44-80.22,54.81-143.13l-216,41Z" transform="translate(-74.83 -180.9)"/><path class="cls-98" d="M569.3,622,953.64,549l1.9,10.05c10.73,56.52,36.19,233.53-57.29,370-70.5,102.92-172.45,147.24-276.7,167s-216.31,18.94-325.4-55.35C261.78,1017.36,146.3,930,110.55,741.58c-30.75-162,23.56-274.87,64-334.85,51-75.72,144-160,306-190.8,62.8-11.92,131.12-14,201.76,7.25C741.42,241,810.11,279.6,868.37,346.62L741,450.17c-39.62-51-87.72-72.1-116.8-80.63-38.4-11.28-84.13-11.36-123.07-4-66.57,12.63-137.4,50.8-179.36,110.81-38.9,55.53-60.07,142.83-42.19,237,21.21,111.78,81.57,169.29,123.17,196.52,44.6,29.28,110.3,53.24,199.48,36.32,55.26-10.49,115.2-37.48,155-81.47,27.89-31.32,52.44-80.22,54.81-143.13l-216,41Z" transform="translate(-74.83 -180.9)"/><path class="cls-99" d="M569.58,622.26l384.34-73,1.9,10.05c10.73,56.52,36.19,233.53-57.29,370-70.5,102.91-172.45,147.23-276.7,167s-216.31,18.93-325.4-55.36c-34.37-23.4-149.85-110.79-185.6-299.19C80.08,579.83,134.39,467,174.8,407c51-75.73,144-160,306-190.8,62.8-11.92,131.12-14,201.77,7.24,59.12,17.8,127.81,56.42,186.07,123.44L741.27,450.44c-39.62-51-87.72-72.09-116.8-80.63-38.4-11.27-84.13-11.36-123.07-4C434.83,378.48,364,416.64,322,476.65c-38.9,55.53-60.07,142.83-42.19,237C301.06,825.46,361.42,883,403,910.21c44.59,29.27,110.29,53.23,199.47,36.31C657.76,936,717.7,909,757.5,865.06c27.89-31.32,52.44-80.22,54.81-143.13l-216,41Z" transform="translate(-74.83 -180.9)"/><path class="cls-100" d="M569.86,622.53,954.2,549.59l1.9,10c10.73,56.52,36.19,233.53-57.29,370-70.5,102.92-172.45,147.23-276.7,167s-216.31,18.93-325.4-55.35c-34.37-23.41-149.85-110.8-185.6-299.19-30.75-162,23.56-274.87,64-334.85,51-75.72,144-160,306-190.8,62.8-11.92,131.12-14,201.77,7.25C742,241.52,810.67,280.15,868.93,347.16L741.55,450.71c-39.62-51-87.72-72.09-116.8-80.63-38.4-11.27-84.13-11.35-123.07-4-66.57,12.63-137.4,50.8-179.36,110.81-38.9,55.53-60.07,142.82-42.19,237,21.21,111.79,81.57,169.29,123.18,196.53,44.59,29.27,110.29,53.24,199.47,36.31,55.26-10.49,115.2-37.47,155-81.46,27.89-31.32,52.44-80.22,54.81-143.13l-216,41Z" transform="translate(-74.83 -180.9)"/><path class="cls-101" d="M570.14,622.8l384.34-72.94,1.9,10c10.73,56.52,36.19,233.53-57.29,370-70.5,102.92-172.45,147.24-276.7,167s-216.31,18.94-325.4-55.35c-34.37-23.41-149.85-110.79-185.6-299.19-30.75-162,23.56-274.87,64-334.85,51-75.72,144-160,306-190.8,62.8-11.92,131.12-14,201.77,7.25C742.26,241.8,811,280.42,869.22,347.44L741.83,451c-39.61-51-87.72-72.1-116.8-80.63-38.4-11.28-84.13-11.36-123.07-4C435.4,379,364.57,417.19,322.6,477.2c-38.9,55.53-60.07,142.83-42.19,237C301.62,826,362,883.52,403.59,910.75,448.18,940,513.88,964,603.06,947.07c55.26-10.49,115.2-37.48,155-81.47,27.89-31.32,52.44-80.22,54.81-143.13l-216,41Z" transform="translate(-74.83 -180.9)"/><path class="cls-102" d="M570.43,623.08l384.33-73,1.9,10c10.73,56.52,36.19,233.53-57.29,370-70.5,102.91-172.45,147.23-276.69,167s-216.32,18.93-325.41-55.36c-34.37-23.4-149.85-110.79-185.6-299.19-30.75-162,23.56-274.87,64-334.84,51-75.73,144-160,306-190.8,62.8-11.92,131.12-14,201.77,7.24,59.12,17.8,127.81,56.42,186.08,123.44L742.11,451.26c-39.61-51-87.72-72.09-116.8-80.63-38.4-11.27-84.13-11.36-123.07-4-66.56,12.64-137.39,50.8-179.36,110.81C284,533,262.81,620.3,280.69,714.5,301.9,826.28,362.26,883.79,403.87,911c44.59,29.27,110.29,53.23,199.47,36.31,55.26-10.49,115.2-37.48,155-81.46,27.89-31.32,52.44-80.22,54.81-143.13l-216,41Z" transform="translate(-74.83 -180.9)"/><path class="cls-103" d="M570.71,623.35,955,550.41,957,560.46c10.72,56.52,36.18,233.53-57.3,370-70.5,102.92-172.45,147.23-276.69,167s-216.32,18.93-325.41-55.35c-34.37-23.41-149.84-110.8-185.6-299.2-30.75-162,23.56-274.86,64-334.84,51-75.72,144-160,306-190.8,62.8-11.92,131.13-14,201.77,7.25C742.83,242.34,811.51,281,869.78,348L742.39,451.53c-39.61-51-87.72-72.09-116.8-80.63-38.4-11.27-84.13-11.35-123.07-4C436,379.57,365.13,417.74,323.17,477.75c-38.91,55.53-60.08,142.82-42.2,237,21.21,111.79,81.57,169.29,123.18,196.53,44.59,29.27,110.29,53.24,199.47,36.31,55.26-10.49,115.2-37.47,155-81.46,27.89-31.32,52.44-80.22,54.81-143.13l-216,41Z" transform="translate(-74.83 -180.9)"/><path class="cls-104" d="M571,623.62l384.33-72.94,1.91,10.05c10.72,56.52,36.19,233.53-57.3,370-70.5,102.92-172.45,147.24-276.69,167s-216.32,18.94-325.41-55.35C263.46,1019,148,931.62,112.23,743.22c-30.75-162,23.56-274.87,64-334.85,51-75.72,144-160,306-190.8,62.8-11.92,131.13-14,201.77,7.25,59.13,17.8,127.82,56.42,186.08,123.44L742.67,451.81c-39.61-51-87.72-72.1-116.8-80.63-38.4-11.28-84.13-11.36-123.07-4C436.24,379.84,365.41,418,323.45,478c-38.91,55.53-60.08,142.83-42.2,237,21.21,111.78,81.57,169.29,123.18,196.52,44.59,29.28,110.3,53.24,199.47,36.32,55.26-10.49,115.2-37.48,155-81.47,27.89-31.32,52.44-80.22,54.81-143.13l-216,41Z" transform="translate(-74.83 -180.9)"/><path class="cls-105" d="M571.27,623.9,955.6,551l1.91,10c10.72,56.52,36.19,233.53-57.3,370-70.5,102.91-172.45,147.23-276.69,167S407.2,1117,298.12,1042.68c-34.37-23.4-149.85-110.79-185.61-299.19-30.75-162,23.56-274.87,64-334.84,51-75.73,144-160,306-190.8,62.8-11.92,131.13-14,201.77,7.24,59.13,17.8,127.82,56.42,186.08,123.44L743,452.08c-39.61-51-87.72-72.09-116.8-80.63-38.4-11.27-84.13-11.36-123.07-4-66.56,12.64-137.39,50.8-179.35,110.81-38.91,55.53-60.08,142.83-42.2,237C302.74,827.1,363.1,884.61,404.71,911.85c44.59,29.27,110.3,53.23,199.47,36.31,55.26-10.49,115.2-37.48,155-81.46,27.89-31.32,52.44-80.22,54.81-143.13l-216,41Z" transform="translate(-74.83 -180.9)"/><path class="cls-106" d="M571.55,624.17l384.33-72.94,1.91,10c10.72,56.52,36.19,233.53-57.3,370C830,1034.21,728,1078.52,623.8,1098.31S407.48,1117.24,298.4,1043c-34.37-23.41-149.85-110.8-185.61-299.2-30.75-162,23.56-274.86,64-334.84,51-75.72,144-160,306-190.8,62.8-11.92,131.13-14,201.77,7.25,59.13,17.79,127.82,56.42,186.08,123.43L743.23,452.35c-39.61-51-87.72-72.09-116.8-80.63-38.4-11.27-84.13-11.35-123.06-4C436.8,380.39,366,418.56,324,478.57c-38.91,55.53-60.08,142.82-42.2,237C303,827.38,363.39,884.88,405,912.12c44.59,29.27,110.3,53.24,199.47,36.31,55.27-10.49,115.2-37.47,155-81.46,27.89-31.32,52.44-80.22,54.81-143.13l-216,41Z" transform="translate(-74.83 -180.9)"/><path class="cls-107" d="M571.83,624.44,956.16,551.5l1.91,10c10.72,56.52,36.19,233.53-57.3,370-70.5,102.92-172.45,147.24-276.69,167s-216.32,18.94-325.4-55.35C264.31,1019.82,148.83,932.44,113.07,744c-30.75-162,23.56-274.87,64-334.85,51-75.72,144-160,306-190.8,62.8-11.92,131.13-14,201.77,7.25C744,243.44,812.64,282.06,870.9,349.08L743.51,452.63c-39.61-51-87.72-72.1-116.8-80.63-38.4-11.28-84.13-11.36-123.06-4-66.57,12.63-137.4,50.8-179.36,110.81-38.91,55.53-60.08,142.83-42.2,237,21.21,111.78,81.58,169.29,123.18,196.52,44.59,29.28,110.3,53.24,199.47,36.32,55.27-10.49,115.2-37.48,155-81.47,27.89-31.32,52.44-80.22,54.81-143.13l-216,41Z" transform="translate(-74.83 -180.9)"/><path class="cls-108" d="M572.11,624.72l384.33-73,1.91,10.05c10.72,56.52,36.19,233.53-57.3,370-70.5,102.92-172.44,147.24-276.69,167S408,1117.79,299,1043.5c-34.37-23.4-149.85-110.79-185.61-299.19-30.75-162,23.56-274.87,64-334.84,51-75.73,144-160.05,306-190.8,62.8-11.92,131.13-14,201.77,7.24,59.13,17.8,127.82,56.42,186.08,123.44L743.79,452.9c-39.61-51-87.72-72.09-116.8-80.63-38.4-11.27-84.13-11.36-123.06-4-66.57,12.64-137.4,50.8-179.36,110.81-38.91,55.53-60.08,142.83-42.2,237C303.58,827.92,364,885.43,405.55,912.67,450.14,941.94,515.85,965.9,605,949c55.27-10.49,115.21-37.48,155-81.47,27.89-31.31,52.44-80.21,54.82-143.12l-216,41Z" transform="translate(-74.83 -180.9)"/><path class="cls-109" d="M572.39,625l384.33-72.94,1.91,10.05c10.72,56.52,36.19,233.53-57.3,370-70.5,102.92-172.44,147.23-276.69,167s-216.31,18.93-325.4-55.35c-34.37-23.41-149.85-110.8-185.61-299.2-30.75-162,23.57-274.86,64-334.84,51-75.72,144-160,306-190.8,62.8-11.92,131.13-14,201.77,7.25C744.51,244,813.2,282.61,871.46,349.62L744.07,453.17c-39.61-51-87.72-72.09-116.79-80.63-38.41-11.27-84.14-11.35-123.07-4-66.57,12.63-137.4,50.8-179.36,110.81-38.91,55.53-60.08,142.82-42.2,237C303.87,828.2,364.23,885.7,405.83,912.94c44.59,29.27,110.3,53.24,199.47,36.31,55.27-10.49,115.21-37.47,155-81.46,27.89-31.32,52.44-80.22,54.82-143.13l-216,41Z" transform="translate(-74.83 -180.9)"/><path class="cls-110" d="M572.67,625.26,957,552.32l1.91,10c10.72,56.52,36.19,233.53-57.3,370-70.5,102.92-172.44,147.24-276.69,167s-216.31,18.94-325.4-55.35c-34.37-23.41-149.85-110.79-185.61-299.19-30.75-162,23.57-274.87,64-334.85,51-75.72,144-160,306-190.8,62.8-11.92,131.13-14,201.77,7.25,59.13,17.8,127.82,56.42,186.08,123.44L744.35,453.45c-39.61-51-87.71-72.1-116.79-80.63-38.41-11.28-84.14-11.36-123.07-4-66.57,12.63-137.4,50.8-179.36,110.81-38.91,55.53-60.08,142.83-42.2,237C304.15,828.47,364.51,886,406.11,913.21c44.59,29.28,110.3,53.24,199.47,36.32,55.27-10.49,115.21-37.48,155-81.47,27.89-31.32,52.44-80.22,54.82-143.13l-216,41Z" transform="translate(-74.83 -180.9)"/><path class="cls-111" d="M573,625.54l384.33-72.95,1.91,10c10.73,56.52,36.19,233.53-57.3,370-70.49,102.92-172.44,147.24-276.69,167s-216.31,18.93-325.4-55.36C265.43,1020.92,150,933.53,114.19,745.13c-30.75-162,23.57-274.87,64-334.84,51-75.73,144-160,306-190.8,62.79-11.92,131.12-14,201.76,7.24,59.13,17.8,127.82,56.42,186.08,123.44L744.63,453.72c-39.61-51-87.71-72.09-116.79-80.63-38.4-11.27-84.14-11.36-123.07-4-66.57,12.64-137.4,50.8-179.36,110.81-38.91,55.53-60.08,142.83-42.2,237,21.22,111.78,81.58,169.29,123.18,196.53,44.59,29.27,110.3,53.23,199.47,36.31,55.27-10.49,115.21-37.48,155-81.47,27.89-31.31,52.44-80.21,54.82-143.12l-216,41Z" transform="translate(-74.83 -180.9)"/><path class="cls-112" d="M573.23,625.81l384.33-72.94,1.91,10c10.73,56.52,36.19,233.53-57.3,370-70.49,102.92-172.44,147.23-276.69,167s-216.31,18.93-325.4-55.35c-34.37-23.41-149.85-110.8-185.61-299.2-30.75-162,23.57-274.86,64-334.84,51-75.72,144-160,306-190.8,62.8-11.92,131.12-14,201.76,7.25C745.35,244.8,814,283.43,872.3,350.44L744.91,454c-39.61-51-87.71-72.09-116.79-80.63-38.4-11.27-84.14-11.35-123.07-4C438.48,382,367.65,420.2,325.69,480.21c-38.91,55.53-60.08,142.82-42.2,237C304.71,829,365.07,886.52,406.67,913.76,451.26,943,517,967,606.14,950.07c55.27-10.49,115.21-37.47,155-81.46C789,837.29,813.58,788.39,816,725.48l-216,41Z" transform="translate(-74.83 -180.9)"/><path class="cls-113" d="M573.51,626.08l384.33-72.94,1.91,10.05c10.73,56.52,36.19,233.53-57.3,370C832,1036.12,730,1080.44,625.76,1100.22s-216.31,18.94-325.4-55.35C266,1021.46,150.51,934.08,114.75,745.68c-30.75-162,23.57-274.87,64-334.85,51-75.72,144-160,306-190.8,62.8-11.92,131.12-14,201.76,7.25,59.13,17.8,127.82,56.42,186.08,123.44L745.19,454.27c-39.61-51-87.71-72.1-116.79-80.63-38.4-11.28-84.14-11.36-123.07-4C438.76,382.3,367.93,420.47,326,480.48c-38.91,55.53-60.08,142.83-42.2,237C305,829.29,365.35,886.8,407,914c44.59,29.28,110.3,53.24,199.47,36.32,55.27-10.49,115.21-37.48,155-81.47,27.89-31.32,52.44-80.22,54.82-143.13l-216,41Z" transform="translate(-74.83 -180.9)"/><path class="cls-114" d="M573.79,626.36l384.33-73L960,563.46c10.73,56.52,36.56,233.79-57.3,370-70.21,103.12-172.44,147.24-276.69,167s-216.31,18.93-325.4-55.36C266.27,1021.74,150.79,934.35,115,746c-30.75-162,23.27-275.07,64-334.84,50.64-76,144-160,306-190.8,62.8-11.92,131.27-14.51,201.76,7.24C746,244.94,814.6,284,872.86,351L745.48,454.54a232.51,232.51,0,0,0-116.8-80.63c-38.51-10.91-84.14-11.36-123.07-4-66.57,12.64-137.4,50.8-179.36,110.81-38.91,55.53-60.08,142.83-42.2,237,21.22,111.78,81.58,169.29,123.18,196.53,44.59,29.27,110.3,53.23,199.47,36.31,55.27-10.49,115.21-37.48,155-81.47,27.88-31.31,52.43-80.21,54.81-143.12l-216,41Z" transform="translate(-74.83 -180.9)"/></g></g></g></svg>