<svg xmlns="http://www.w3.org/2000/svg" viewBox="0 0 50.9 51.16"><defs><style>.cls-1{fill:#6372a4;}</style></defs><title>Zasób 3</title><g id="Warstwa_2" data-name="Warstwa 2"><g id="Warstwa_1-2" data-name="Warstwa 1"><path class="cls-1" d="M47.27,0H3.62A3.66,3.66,0,0,0,0,3.69V47.47a3.66,3.66,0,0,0,3.62,3.69H47.27a3.67,3.67,0,0,0,3.63-3.69V3.69A3.67,3.67,0,0,0,47.27,0ZM15.38,43.85H7.84V19.44H15.4V43.85ZM11.61,16.1A4.4,4.4,0,1,1,16,11.71,4.38,4.38,0,0,1,11.61,16.1ZM43.67,43.85H36.12V32c0-2.84-.06-6.48-3.92-6.48s-4.53,3.08-4.53,6.27V43.85H20.12V19.44h7.24v3.33h.1a7.94,7.94,0,0,1,7.15-3.94c7.63,0,9.06,5.06,9.06,11.64Z"/></g></g></svg>