<svg viewBox="0 0 19.33 18.54" xmlns="http://www.w3.org/2000/svg"><path d="m18.17 7.76v9.47c0 1-.29 1.36-1.31 1.3-1.34-.08-2.7 0-4 0-.58 0-.76-.19-.75-.75 0-1.89 0-3.78 0-5.66 0-.73-.23-.93-.92-.9a23.57 23.57 0 0 1 -3 0c-.8-.06-1 .25-.94 1v5.46c0 .63-.14.9-.84.87-1.41-.05-2.83-.05-4.24 0-.83 0-1-.31-1-1.07 0-3.23 0-6.47 0-9.67-.23-.14-.37 0-.5.06s-.45.13-.61-.11 0-.45.21-.6c.73-.57 1.42-1.16 2.14-1.7 2.19-1.72 4.4-3.46 6.59-5.17a.92.92 0 0 1 1.33 0c2.78 2.19 5.57 4.35 8.35 6.54.28.23.83.43.59.92s-.69-.17-1.1.01z" fill="#eb7eb1"/><path d="m16.1 3.78c-.82-.64-1.52-1.14-2.17-1.7-.31-.26-.29-.53.2-.56a.17.17 0 0 1 .1 0c2.27.05 1.93-.41 1.87 2.26z" fill="#eb80b2"/></svg>