<svg xmlns="http://www.w3.org/2000/svg" viewBox="0 0 52.47 51.16"><defs><style>.cls-1{fill:#6372a4;}</style></defs><title>Zasób 2</title><g id="Warstwa_2" data-name="Warstwa 2"><g id="Warstwa_1-2" data-name="Warstwa 1"><path class="cls-1" d="M17.55,41.19c0,.22-.24.39-.55.39s-.59-.14-.59-.39.24-.38.55-.38S17.55,41,17.55,41.19Zm-3.29-.47c-.07.21.14.45.46.52s.59,0,.65-.21-.14-.46-.45-.56a.55.55,0,0,0-.66.25Zm4.68-.18c-.31.07-.52.27-.49.52s.31.35.62.27.52-.27.49-.48S19.24,40.51,18.94,40.54ZM25.9,0C11.22,0,0,11.14,0,25.81A26.53,26.53,0,0,0,17.93,51.12c1.36.24,1.83-.6,1.83-1.28s0-4.28,0-6.5c0,0-7.41,1.59-9-3.15,0,0-1.21-3.08-2.94-3.87,0,0-2.42-1.66.17-1.63a5.58,5.58,0,0,1,4.08,2.73c2.32,4.08,6.2,2.91,7.71,2.21a5.9,5.9,0,0,1,1.7-3.57c-5.92-.65-11.88-1.51-11.88-11.69a8,8,0,0,1,2.49-6.23A10,10,0,0,1,12.38,11c2.21-.69,7.3,2.86,7.3,2.86a24.94,24.94,0,0,1,13.28,0s5.09-3.56,7.3-2.86a10,10,0,0,1,.28,7.18c1.69,1.88,2.73,3.34,2.73,6.23,0,10.21-6.23,11-12.15,11.69,1,.84,1.8,2.43,1.8,4.91,0,3.57,0,8,0,8.85,0,.68.49,1.52,1.83,1.28A26.29,26.29,0,0,0,52.47,25.81C52.47,11.14,40.57,0,25.9,0ZM10.28,36.49c-.13.1-.1.35.08.55s.41.24.55.1.1-.35-.08-.55S10.42,36.35,10.28,36.49Zm-1.14-.86c-.07.14,0,.31.24.41A.32.32,0,0,0,9.84,36c.07-.14,0-.31-.24-.41S9.21,35.52,9.14,35.63Zm3.43,3.77c-.17.13-.11.45.14.65s.55.28.68.11.08-.46-.13-.66S12.71,39.23,12.57,39.4Zm-1.21-1.56c-.17.11-.17.38,0,.62s.46.35.59.25a.49.49,0,0,0,0-.66c-.14-.24-.42-.35-.59-.21Z"/></g></g></svg>